<?xml version="1.0" encoding="utf-8"?>
<!-- Generator: Adobe Illustrator 21.0.0, SVG Export Plug-In . SVG Version: 6.00 Build 0)  -->
<svg version="1.1" id="Layer_1" xmlns="http://www.w3.org/2000/svg" xmlns:xlink="http://www.w3.org/1999/xlink" x="0px" y="0px"
	 width="1400px" height="980px" viewBox="0 0 1400 980" style="enable-background:new 0 0 1400 980;" xml:space="preserve">
<style type="text/css">
	.st0{fill-rule:evenodd;clip-rule:evenodd;fill:#7A5180;}
	.st1{fill-rule:evenodd;clip-rule:evenodd;fill:#5C3B61;}
	.st2{fill-rule:evenodd;clip-rule:evenodd;fill:#553859;}
	.st3{fill-rule:evenodd;clip-rule:evenodd;fill:#8A5C91;}
	.st4{fill-rule:evenodd;clip-rule:evenodd;fill:#7F5585;}
	.st5{fill-rule:evenodd;clip-rule:evenodd;fill:#624666;}
	.st6{fill-rule:evenodd;clip-rule:evenodd;fill:#4E3152;}
	.st7{fill-rule:evenodd;clip-rule:evenodd;fill:#FFFFFF;}
	.st8{fill-rule:evenodd;clip-rule:evenodd;fill:#66446B;}
	.st9{fill-rule:evenodd;clip-rule:evenodd;fill:#9F74A6;}
	.st10{fill-rule:evenodd;clip-rule:evenodd;fill:#D9B375;}
	.st11{fill-rule:evenodd;clip-rule:evenodd;fill:#CFAC74;}
	.st12{fill-rule:evenodd;clip-rule:evenodd;fill:#AF8650;}
	.st13{fill-rule:evenodd;clip-rule:evenodd;fill:#C3995F;}
	.st14{fill-rule:evenodd;clip-rule:evenodd;fill:#A17E50;}
	.st15{fill-rule:evenodd;clip-rule:evenodd;fill:#B89565;}
	.st16{fill-rule:evenodd;clip-rule:evenodd;fill:#B08C5A;}
	.st17{fill-rule:evenodd;clip-rule:evenodd;fill:#C9A56A;}
	.st18{fill-rule:evenodd;clip-rule:evenodd;fill:#5E5C5C;}
	.st19{fill-rule:evenodd;clip-rule:evenodd;fill:#666666;}
	.st20{fill-rule:evenodd;clip-rule:evenodd;fill:#F7C8AC;}
	.st21{fill-rule:evenodd;clip-rule:evenodd;fill:#D9B19A;}
	.st22{fill-rule:evenodd;clip-rule:evenodd;fill:#B2B2B2;}
	.st23{fill-rule:evenodd;clip-rule:evenodd;fill:#ABABAB;}
	.st24{fill-rule:evenodd;clip-rule:evenodd;fill:#CCCCCC;}
	.st25{fill-rule:evenodd;clip-rule:evenodd;fill:#999999;}
	.st26{fill-rule:evenodd;clip-rule:evenodd;fill:#BDBBBB;}
	.st27{fill-rule:evenodd;clip-rule:evenodd;fill:#381C1C;}
	.st28{fill-rule:evenodd;clip-rule:evenodd;fill:#663333;}
	.st29{fill-rule:evenodd;clip-rule:evenodd;fill:#E6E6E6;}
	.st30{fill-rule:evenodd;clip-rule:evenodd;fill:#FFB230;}
</style>
<g>
	<rect y="0" class="st0" width="1400" height="980"/>
	<rect y="631.6" class="st1" width="1400" height="348.4"/>
	<path class="st2" d="M1400,855.3V631.6H810.5C1023.6,786,1238.2,867.3,1400,855.3z"/>
	<path class="st3" d="M0,475.7c147.8,156.4,411.2,260.5,711.4,260.5c285.4,0,537.3-94,688.6-237.6V0H0V475.7z"/>
	<path class="st4" d="M542.9,395.9C669.6,529.5,806,637.7,938.7,715.6c189.5-35.1,351.8-113.1,461.3-217V0H253.1
		C323.4,131.6,421.2,267.6,542.9,395.9z"/>
	<path class="st5" d="M711.4,736.2c183.3,0,352.9-38.8,490.8-104.6H220.7C358.6,697.4,528.1,736.2,711.4,736.2z"/>
	<path class="st6" d="M602.1,813.1c-117.9,0-214.1,13.7-214.1,30.5c0,16.8,96.2,30.5,214.1,30.5c117.9,0,214.1-13.7,214.1-30.5
		C816.1,826.8,720,813.1,602.1,813.1z"/>
	<path class="st6" d="M925.8,759c-32,0-58.1,3.7-58.1,8.3c0,4.6,26.1,8.3,58.1,8.3c32,0,58.1-3.7,58.1-8.3
		C983.9,762.7,957.8,759,925.8,759z"/>
	<path class="st6" d="M922.1,763.7c-15.8,0-34.1,1.6-41,2.5c-64.8,8.4-67.3,36.4-98.5,54.7c-27,15.8-46.2,19.3-98,17.7
		c-22.8-0.7-43-3.3-59.6-9.2c-28.6-10.2-28.9,8.4-24.3-5.5c4.1-12.5-48.7-19.2-48.7,7.2c0,14.2,9.7-1.5,37.6,9.1
		c65.3,24.9,176.3,17.8,218.7-20.8c37.9-34.4,36.9-49.5,114.1-50C969.6,769.3,943.9,763.7,922.1,763.7z"/>
	<path class="st7" d="M892.1,814.7c0.2,0,0.4-0.1,0.6-0.2c0.2-0.2,0.2-0.4,0.2-0.7c0-0.3-0.1-0.5-0.2-0.7c-0.2-0.2-0.4-0.2-0.6-0.2
		c-0.2,0-0.4,0.1-0.6,0.2c-0.2,0.2-0.2,0.4-0.2,0.7c0,0.3,0.1,0.5,0.2,0.7C891.6,814.6,891.8,814.7,892.1,814.7z"/>
	<rect x="891.4" y="816.3" class="st7" width="1.4" height="9.2"/>
	<path class="st7" d="M562.2,839.6c-1.2,0-2.2,0.4-3,1.3c-0.7,0.9-1.1,2.1-1.1,3.5c0,1.5,0.4,2.6,1.2,3.5c0.8,0.8,1.9,1.2,3.2,1.2
		c0.6,0,1.2,0,1.6-0.1c0.4-0.1,0.9-0.2,1.4-0.5v-1.2c-1,0.4-2,0.6-2.9,0.6c-0.9,0-1.7-0.3-2.2-0.8c-0.5-0.6-0.8-1.4-0.8-2.5h6.4
		v-0.9c0-1.2-0.3-2.2-1-3C564.3,840,563.4,839.6,562.2,839.6z M559.6,843.5c0.1-0.9,0.3-1.5,0.8-2c0.4-0.5,1-0.7,1.8-0.7
		c0.7,0,1.3,0.2,1.7,0.7c0.4,0.5,0.6,1.1,0.6,2H559.6z"/>
	<path class="st7" d="M538.3,823.8c-1,0.4-2,0.6-2.9,0.6c-0.9,0-1.7-0.3-2.2-0.8c-0.5-0.6-0.8-1.4-0.8-2.5h6.4v-0.9
		c0-1.2-0.3-2.2-1-3c-0.7-0.8-1.6-1.1-2.7-1.1c-1.2,0-2.2,0.4-3,1.3c-0.7,0.9-1.1,2.1-1.1,3.5c0,1.5,0.4,2.6,1.2,3.5
		c0.8,0.8,1.9,1.2,3.2,1.2c0.6,0,1.2,0,1.6-0.1c0.4-0.1,0.9-0.2,1.4-0.5V823.8z M533.1,818c0.4-0.5,1-0.7,1.8-0.7
		c0.7,0,1.3,0.2,1.7,0.7c0.4,0.5,0.6,1.1,0.6,2h-4.8C532.4,819.2,532.7,818.5,533.1,818z"/>
	<path class="st7" d="M540.9,843.7c-0.8-0.3-1.3-0.5-1.6-0.7c-0.3-0.2-0.5-0.3-0.6-0.5c-0.1-0.2-0.2-0.4-0.2-0.6
		c0-0.4,0.2-0.7,0.5-0.9c0.3-0.2,0.8-0.3,1.5-0.3c0.7,0,1.6,0.2,2.5,0.6l0.5-1.1c-1-0.4-1.9-0.6-2.9-0.6c-1.1,0-1.9,0.2-2.5,0.7
		c-0.6,0.4-0.9,1-0.9,1.8c0,0.4,0.1,0.8,0.3,1.1c0.2,0.3,0.4,0.6,0.8,0.8c0.4,0.2,1,0.5,1.8,0.8c0.9,0.3,1.5,0.7,1.8,0.9
		c0.3,0.3,0.5,0.6,0.5,0.9c0,0.5-0.2,0.8-0.6,1.1c-0.4,0.2-1,0.3-1.7,0.3c-0.5,0-1-0.1-1.5-0.2c-0.5-0.1-1-0.3-1.4-0.5v1.3
		c0.7,0.4,1.6,0.6,2.9,0.6c1.2,0,2.1-0.2,2.7-0.7c0.6-0.5,1-1.1,1-2c0-0.6-0.2-1.1-0.6-1.5C542.7,844.5,542,844.1,540.9,843.7z"/>
	<rect x="855.7" y="816.3" class="st7" width="1.4" height="9.2"/>
	<path class="st7" d="M871.3,814.7c0.2,0,0.4-0.1,0.6-0.2c0.2-0.2,0.2-0.4,0.2-0.7c0-0.3-0.1-0.5-0.2-0.7c-0.2-0.2-0.4-0.2-0.6-0.2
		c-0.2,0-0.4,0.1-0.6,0.2c-0.2,0.2-0.2,0.4-0.2,0.7c0,0.3,0.1,0.5,0.2,0.7C870.9,814.6,871.1,814.7,871.3,814.7z"/>
	<path class="st7" d="M568.5,825.3c0.5,0.2,1,0.3,1.6,0.3c1.2,0,2.1-0.4,2.8-1.3c0.7-0.8,1-2,1-3.5c0-1.5-0.3-2.7-1-3.5
		c-0.7-0.8-1.6-1.3-2.8-1.3c-0.6,0-1.2,0.1-1.6,0.3c-0.5,0.2-0.9,0.6-1.3,1.1h-0.1l-0.2-1.3h-1.1v13.4h1.4v-3.8c0-0.5,0-1-0.1-1.5
		h0.1C567.6,824.8,568.1,825.1,568.5,825.3z M567.3,820.6c0-1.1,0.2-2,0.6-2.5c0.4-0.5,1.1-0.8,2-0.8c0.8,0,1.5,0.3,1.9,0.9
		c0.4,0.6,0.7,1.5,0.7,2.6c0,1.1-0.2,2-0.7,2.7c-0.5,0.6-1.1,1-1.9,1c-1,0-1.6-0.3-2.1-0.8c-0.4-0.6-0.6-1.5-0.6-2.8V820.6z"/>
	<path class="st7" d="M856.4,814.7c0.2,0,0.4-0.1,0.6-0.2c0.2-0.2,0.2-0.4,0.2-0.7c0-0.3-0.1-0.5-0.2-0.7c-0.2-0.2-0.4-0.2-0.6-0.2
		c-0.2,0-0.4,0.1-0.6,0.2c-0.2,0.2-0.2,0.4-0.2,0.7c0,0.3,0.1,0.5,0.2,0.7S856.1,814.7,856.4,814.7z"/>
	<rect x="870.6" y="816.3" class="st7" width="1.4" height="9.2"/>
	<path class="st7" d="M552.3,817.9c0.3,0.4,0.5,0.9,0.5,1.7v6h1.4v-6c0-1.2-0.3-2-0.8-2.6c-0.5-0.5-1.3-0.8-2.3-0.8
		c-0.7,0-1.3,0.1-1.8,0.4c-0.5,0.3-0.9,0.7-1.2,1.1H548c-0.4-1-1.4-1.6-2.8-1.6c-0.6,0-1.1,0.1-1.6,0.4c-0.5,0.3-0.9,0.6-1.1,1h-0.1
		l-0.2-1.3H541v9.2h1.4v-4.8c0-1.2,0.2-2.1,0.6-2.6c0.4-0.5,1-0.8,1.9-0.8c0.7,0,1.2,0.2,1.5,0.6c0.3,0.4,0.5,0.9,0.5,1.7v6h1.4
		v-5.1c0-1,0.2-1.8,0.6-2.3c0.4-0.5,1.1-0.8,1.9-0.8C551.5,817.3,552,817.5,552.3,817.9z"/>
	<path class="st7" d="M590.9,821.1c0,1.2-0.2,2.1-0.7,2.6c-0.4,0.5-1.2,0.8-2.1,0.8c-0.7,0-1.3-0.2-1.6-0.6
		c-0.3-0.4-0.5-0.9-0.5-1.7v-6h-1.4v6c0,1.2,0.3,2,0.8,2.6c0.6,0.5,1.4,0.8,2.5,0.8c0.7,0,1.2-0.1,1.7-0.4c0.5-0.2,0.9-0.6,1.2-1
		h0.1l0.2,1.2h1.2v-9.2h-1.4V821.1z"/>
	<path class="st7" d="M606.2,839.6c-0.5,0-1.1,0.1-1.6,0.2c-0.5,0.1-1,0.3-1.5,0.6l0.4,1.1c1-0.5,1.8-0.7,2.6-0.7
		c0.7,0,1.2,0.2,1.5,0.5c0.3,0.3,0.5,0.9,0.5,1.6v0.6l-1.6,0.1c-3,0.1-4.5,1.1-4.5,2.9c0,0.9,0.3,1.5,0.8,2c0.5,0.5,1.2,0.7,2.2,0.7
		c0.7,0,1.3-0.1,1.7-0.3c0.5-0.2,0.9-0.6,1.4-1.2h0.1l0.3,1.3h1v-6.3c0-1.1-0.3-1.9-0.8-2.3C608.1,839.9,607.3,839.6,606.2,839.6z
		 M608,845.3c0,0.9-0.3,1.5-0.7,2c-0.5,0.5-1.2,0.7-2,0.7c-0.5,0-1-0.1-1.3-0.4c-0.3-0.3-0.5-0.6-0.5-1.2c0-0.6,0.2-1.1,0.7-1.4
		c0.5-0.3,1.3-0.5,2.4-0.5l1.4-0.1V845.3z"/>
	<path class="st7" d="M623.6,841.3c0.3,0.4,0.5,0.9,0.5,1.6v6h1.4v-6c0-1.2-0.3-2-0.8-2.6c-0.5-0.5-1.3-0.8-2.3-0.8
		c-0.7,0-1.3,0.1-1.8,0.4c-0.5,0.3-0.9,0.7-1.2,1.1h-0.1c-0.4-1-1.4-1.6-2.8-1.6c-0.6,0-1.1,0.1-1.6,0.4c-0.5,0.3-0.9,0.6-1.1,1
		h-0.1l-0.2-1.3h-1.1v9.2h1.4v-4.8c0-1.2,0.2-2.1,0.6-2.6c0.4-0.5,1-0.8,1.9-0.8c0.7,0,1.2,0.2,1.5,0.6c0.3,0.4,0.5,0.9,0.5,1.6v6
		h1.4v-5.2c0-1,0.2-1.8,0.6-2.3c0.4-0.5,1.1-0.7,1.9-0.7C622.8,840.8,623.2,841,623.6,841.3z"/>
	<path class="st7" d="M935,814.7c0.2,0,0.4-0.1,0.6-0.2c0.2-0.2,0.2-0.4,0.2-0.7c0-0.3-0.1-0.5-0.2-0.7c-0.2-0.2-0.4-0.2-0.6-0.2
		c-0.2,0-0.4,0.1-0.6,0.2c-0.2,0.2-0.2,0.4-0.2,0.7c0,0.3,0.1,0.5,0.2,0.7C934.5,814.6,934.7,814.7,935,814.7z"/>
	<path class="st7" d="M634.6,863.1c-1.2,0-2.2,0.4-3,1.3c-0.7,0.9-1.1,2.1-1.1,3.5c0,1.5,0.4,2.6,1.2,3.5c0.8,0.8,1.9,1.2,3.2,1.2
		c0.6,0,1.2,0,1.6-0.1c0.4-0.1,0.9-0.2,1.4-0.5l0-1.2c-1,0.4-2,0.6-2.9,0.6c-0.9,0-1.7-0.3-2.2-0.8c-0.5-0.6-0.8-1.4-0.8-2.5h6.4
		v-0.9c0-1.2-0.3-2.2-1-3C636.7,863.4,635.7,863.1,634.6,863.1z M632,867c0.1-0.9,0.3-1.5,0.8-2c0.4-0.5,1-0.7,1.8-0.7
		c0.7,0,1.3,0.2,1.7,0.7c0.4,0.5,0.6,1.1,0.6,2H632z"/>
	<path class="st7" d="M625.9,869.4c-0.3,0.9-0.5,1.5-0.6,1.8h-0.1c-0.1-0.4-0.3-1.2-0.8-2.5l-2-5.5h-1.5l3.5,9.2h1.6l3.5-9.2h-1.5
		C626.9,866.4,626.2,868.4,625.9,869.4z"/>
	<rect x="640.7" y="859.4" class="st7" width="1.4" height="13.1"/>
	<path class="st7" d="M602.5,825.5v-5.2c0-1,0.2-1.8,0.6-2.3c0.4-0.5,1.1-0.8,1.9-0.8c0.7,0,1.2,0.2,1.5,0.6
		c0.3,0.4,0.5,0.9,0.5,1.7v6h1.4v-6c0-1.2-0.3-2-0.8-2.6c-0.5-0.5-1.3-0.8-2.3-0.8c-0.7,0-1.3,0.1-1.8,0.4c-0.5,0.3-0.9,0.7-1.2,1.1
		h-0.1c-0.4-1-1.4-1.6-2.8-1.6c-0.6,0-1.1,0.1-1.6,0.4c-0.5,0.3-0.9,0.6-1.1,1h-0.1l-0.2-1.3h-1.1v9.2h1.4v-4.8
		c0-1.2,0.2-2.1,0.6-2.6c0.4-0.5,1-0.8,1.9-0.8c0.7,0,1.2,0.2,1.5,0.6c0.3,0.4,0.5,0.9,0.5,1.7v6H602.5z"/>
	<path class="st7" d="M579.6,820.3c-0.8-0.3-1.3-0.5-1.6-0.7c-0.3-0.2-0.5-0.3-0.6-0.5c-0.1-0.2-0.2-0.4-0.2-0.6
		c0-0.4,0.2-0.7,0.5-0.9c0.3-0.2,0.8-0.3,1.5-0.3c0.7,0,1.6,0.2,2.5,0.6l0.5-1.1c-0.9-0.4-1.9-0.6-2.9-0.6c-1.1,0-1.9,0.2-2.5,0.7
		c-0.6,0.4-0.9,1-0.9,1.8c0,0.4,0.1,0.8,0.3,1.1c0.2,0.3,0.4,0.6,0.8,0.8c0.4,0.2,1,0.5,1.8,0.8c0.9,0.3,1.5,0.7,1.8,0.9
		c0.3,0.3,0.5,0.6,0.5,0.9c0,0.5-0.2,0.8-0.6,1.1c-0.4,0.2-1,0.4-1.7,0.4c-0.5,0-1-0.1-1.5-0.2c-0.5-0.1-1-0.3-1.4-0.5v1.3
		c0.7,0.4,1.6,0.6,2.9,0.6c1.2,0,2.1-0.2,2.7-0.7c0.6-0.5,1-1.1,1-2c0-0.6-0.2-1.1-0.6-1.5C581.5,821.1,580.7,820.7,579.6,820.3z"/>
	<path class="st7" d="M924.1,825.7c0.6,0,1.2,0,1.6-0.1c0.4-0.1,0.9-0.2,1.4-0.5v-1.2c-1,0.4-2,0.6-2.9,0.6c-0.9,0-1.7-0.3-2.2-0.8
		c-0.5-0.6-0.8-1.4-0.8-2.5h6.4v-0.9c0-1.2-0.3-2.2-1-3c-0.7-0.8-1.6-1.1-2.7-1.1c-1.2,0-2.2,0.4-3,1.3c-0.7,0.9-1.1,2.1-1.1,3.5
		c0,1.5,0.4,2.6,1.2,3.5C921.7,825.3,922.8,825.7,924.1,825.7z M922,818c0.4-0.5,1-0.7,1.8-0.7c0.7,0,1.3,0.2,1.7,0.7
		c0.4,0.5,0.6,1.1,0.6,2h-4.8C921.3,819.2,921.5,818.5,922,818z"/>
	<path class="st7" d="M589.6,844.6c0,1.2-0.2,2.1-0.7,2.6c-0.4,0.5-1.2,0.8-2.1,0.8c-0.7,0-1.3-0.2-1.6-0.6
		c-0.3-0.4-0.5-0.9-0.5-1.7v-6h-1.4v6c0,1.2,0.3,2,0.8,2.6c0.6,0.5,1.4,0.8,2.5,0.8c0.7,0,1.2-0.1,1.7-0.4c0.5-0.2,0.9-0.6,1.2-1
		h0.1l0.2,1.2h1.2v-9.2h-1.4V844.6z"/>
	<path class="st7" d="M574.5,839.6l0,0.6l0.1,0.7h-0.1c-0.7-0.9-1.6-1.4-2.9-1.4c-1.2,0-2.1,0.4-2.8,1.3c-0.7,0.8-1,2-1,3.5
		c0,1.5,0.3,2.7,1,3.5c0.7,0.8,1.6,1.2,2.8,1.2c1.3,0,2.2-0.5,2.9-1.4h0.1l0.2,1.2h1.1v-13.1h-1.4V839.6z M574.5,844.7
		c0,1.2-0.2,2-0.6,2.5c-0.4,0.5-1.1,0.8-2.1,0.8c-0.8,0-1.5-0.3-1.9-0.9c-0.4-0.6-0.6-1.5-0.6-2.7c0-1.2,0.2-2.1,0.7-2.7
		c0.4-0.6,1.1-1,1.9-1c1,0,1.6,0.3,2.1,0.8c0.4,0.6,0.7,1.5,0.7,2.8V844.7z"/>
	<rect x="934.3" y="816.3" class="st7" width="1.4" height="9.2"/>
	<rect x="598.3" y="835.9" class="st7" width="1.4" height="13.1"/>
	<rect x="594" y="835.9" class="st7" width="1.4" height="13.1"/>
	<path class="st7" d="M534.1,836.3c-0.2,0-0.4,0.1-0.6,0.2c-0.2,0.2-0.2,0.4-0.2,0.7s0.1,0.6,0.2,0.7c0.2,0.2,0.4,0.2,0.6,0.2
		c0.2,0,0.4-0.1,0.6-0.2c0.2-0.2,0.2-0.4,0.2-0.7c0-0.3-0.1-0.5-0.2-0.7C534.5,836.4,534.3,836.3,534.1,836.3z"/>
	<rect x="754.7" y="835.9" class="st7" width="1.4" height="13.1"/>
	<rect x="636.8" y="812.4" class="st7" width="1.4" height="13.1"/>
	<path class="st7" d="M739.7,839.8v6c0,1.2,0.3,2,0.8,2.6c0.6,0.5,1.4,0.8,2.5,0.8c0.7,0,1.2-0.1,1.7-0.4c0.5-0.2,0.9-0.6,1.2-1h0.1
		l0.2,1.2h1.2v-9.2H746v4.8c0,1.2-0.2,2.1-0.7,2.6c-0.4,0.5-1.2,0.8-2.1,0.8c-0.7,0-1.3-0.2-1.6-0.6c-0.3-0.4-0.5-0.9-0.5-1.7v-6
		H739.7z"/>
	<path class="st7" d="M632.1,840.8c0.3,0,0.6,0,1,0.1c0.4,0.1,0.7,0.2,1,0.3l0.4-1.2c-0.3-0.1-0.6-0.2-1-0.3
		c-0.4-0.1-0.9-0.1-1.3-0.1c-1.4,0-2.4,0.4-3.2,1.3c-0.7,0.8-1.1,2-1.1,3.6c0,1.5,0.4,2.7,1.1,3.5c0.7,0.8,1.8,1.2,3.1,1.2
		c0.9,0,1.7-0.2,2.3-0.5v-1.2c-0.8,0.3-1.6,0.5-2.4,0.5c-0.9,0-1.6-0.3-2-0.9c-0.5-0.6-0.7-1.5-0.7-2.6
		C629.2,842,630.2,840.8,632.1,840.8z"/>
	<path class="st7" d="M766,820.4c0.4,0.2,1,0.5,1.8,0.8c0.9,0.3,1.5,0.7,1.8,0.9c0.3,0.3,0.5,0.6,0.5,0.9c0,0.5-0.2,0.8-0.6,1.1
		c-0.4,0.2-1,0.4-1.7,0.4c-0.5,0-1-0.1-1.5-0.2c-0.5-0.1-1-0.3-1.4-0.5v1.3c0.7,0.4,1.6,0.6,2.9,0.6c1.2,0,2.1-0.2,2.7-0.7
		c0.6-0.5,1-1.1,1-2c0-0.6-0.2-1.1-0.6-1.5c-0.4-0.4-1.1-0.8-2.2-1.2c-0.8-0.3-1.3-0.5-1.6-0.7c-0.3-0.2-0.5-0.3-0.6-0.5
		c-0.1-0.2-0.2-0.4-0.2-0.6c0-0.4,0.2-0.7,0.5-0.9c0.3-0.2,0.8-0.3,1.5-0.3c0.7,0,1.6,0.2,2.5,0.6l0.5-1.1c-1-0.4-1.9-0.6-2.9-0.6
		c-1.1,0-1.9,0.2-2.5,0.7c-0.6,0.4-0.9,1-0.9,1.8c0,0.4,0.1,0.8,0.3,1.1C765.3,819.9,765.6,820.2,766,820.4z"/>
	<path class="st7" d="M627.8,825.1c0.6,0.4,1.4,0.6,2.2,0.6c1.3,0,2.4-0.4,3.1-1.3c0.8-0.8,1.1-2,1.1-3.5c0-1.5-0.4-2.6-1.1-3.5
		c-0.8-0.9-1.8-1.3-3.1-1.3c-1.3,0-2.4,0.4-3.1,1.3c-0.8,0.8-1.1,2-1.1,3.5c0,1,0.2,1.8,0.5,2.5
		C626.7,824.2,627.2,824.7,627.8,825.1z M628,818.2c0.5-0.6,1.2-0.9,2.1-0.9c0.9,0,1.6,0.3,2.1,0.9c0.5,0.6,0.7,1.5,0.7,2.7
		c0,1.2-0.2,2.1-0.7,2.7c-0.5,0.6-1.2,0.9-2.1,0.9c-0.9,0-1.6-0.3-2.1-0.9c-0.5-0.6-0.7-1.5-0.7-2.7
		C627.3,819.7,627.5,818.8,628,818.2z"/>
	<path class="st7" d="M756.3,820.7c0-1.2,0.2-2.1,0.7-2.6c0.4-0.5,1.2-0.8,2.1-0.8c0.7,0,1.3,0.2,1.6,0.6c0.3,0.4,0.5,0.9,0.5,1.7v6
		h1.4v-6c0-1.2-0.3-2-0.8-2.6c-0.6-0.5-1.4-0.8-2.5-0.8c-0.6,0-1.2,0.1-1.7,0.4c-0.5,0.3-0.9,0.6-1.2,1.1h-0.1l-0.2-1.3h-1.1v9.2
		h1.4V820.7z"/>
	<path class="st7" d="M728.5,825.7c0.3-0.7,0.5-1.4,0.6-2l-0.1-0.2h-1.5c-0.1,0.5-0.2,1.2-0.4,2.1c-0.2,0.9-0.3,1.6-0.5,2.2h1
		C728,827.1,728.3,826.4,728.5,825.7z"/>
	<path class="st7" d="M619.1,825.7c1.3,0,2.3-0.5,2.9-1.4h0.1l0.2,1.2h1.1v-13.1H622v3.8l0,0.6l0.1,0.7H622
		c-0.7-0.9-1.6-1.4-2.9-1.4c-1.2,0-2.1,0.4-2.8,1.3c-0.7,0.8-1,2-1,3.5c0,1.5,0.3,2.7,1,3.5C616.9,825.3,617.9,825.7,619.1,825.7z
		 M617.4,818.2c0.4-0.6,1.1-1,1.9-1c1,0,1.6,0.3,2.1,0.8c0.4,0.6,0.7,1.5,0.7,2.8l0,0.3c0,1.2-0.2,2-0.6,2.5
		c-0.4,0.5-1.1,0.8-2.1,0.8c-0.8,0-1.5-0.3-1.9-0.9c-0.4-0.6-0.6-1.5-0.6-2.7C616.7,819.8,616.9,818.9,617.4,818.2z"/>
	<path class="st7" d="M735.4,847L735.4,847l-6.8-10.3H727V849h1.3v-7c0-1,0-2.1-0.1-3.3h0.1L735,849h1.6v-12.3h-1.3v7.1
		c0,0.4,0,0.9,0,1.8C735.4,846.3,735.4,846.8,735.4,847z"/>
	<path class="st7" d="M717.8,847.2c-0.2,0.2-0.3,0.5-0.3,0.9c0,0.4,0.1,0.7,0.3,0.9c0.2,0.2,0.4,0.3,0.7,0.3c0.3,0,0.6-0.1,0.8-0.3
		c0.2-0.2,0.3-0.5,0.3-0.8c0-0.4-0.1-0.7-0.3-0.9c-0.2-0.2-0.4-0.3-0.8-0.3C718.2,846.9,718,847,717.8,847.2z"/>
	<path class="st7" d="M688.4,825.7c0.7,0,1.3-0.1,1.7-0.3c0.5-0.2,0.9-0.6,1.4-1.2h0.1l0.3,1.3h1v-6.3c0-1.1-0.3-1.9-0.8-2.3
		c-0.5-0.5-1.3-0.7-2.4-0.7c-0.5,0-1.1,0.1-1.6,0.2c-0.5,0.1-1,0.3-1.5,0.6l0.4,1.1c1-0.5,1.8-0.7,2.6-0.7c0.7,0,1.2,0.2,1.5,0.5
		c0.3,0.3,0.5,0.9,0.5,1.6v0.6L690,820c-3,0.1-4.5,1.1-4.5,2.9c0,0.9,0.3,1.5,0.8,2C686.8,825.4,687.5,825.7,688.4,825.7z
		 M687.7,821.6c0.5-0.3,1.3-0.5,2.4-0.5l1.4-0.1v0.8c0,0.9-0.3,1.5-0.7,2c-0.5,0.5-1.2,0.7-2,0.7c-0.5,0-1-0.1-1.3-0.4
		c-0.3-0.3-0.5-0.6-0.5-1.2C687,822.3,687.2,821.9,687.7,821.6z"/>
	<path class="st7" d="M697.2,820.7c0-1.2,0.2-2.1,0.6-2.6c0.4-0.5,1-0.8,1.9-0.8c0.7,0,1.2,0.2,1.5,0.6c0.3,0.4,0.5,0.9,0.5,1.7v6
		h1.4v-5.2c0-1,0.2-1.8,0.6-2.3c0.4-0.5,1.1-0.8,1.9-0.8c0.7,0,1.1,0.2,1.5,0.6c0.3,0.4,0.5,0.9,0.5,1.7v6h1.4v-6
		c0-1.2-0.3-2-0.8-2.6c-0.5-0.5-1.3-0.8-2.3-0.8c-0.7,0-1.3,0.1-1.8,0.4c-0.5,0.3-0.9,0.7-1.2,1.1h-0.1c-0.4-1-1.4-1.6-2.8-1.6
		c-0.6,0-1.1,0.1-1.6,0.4c-0.5,0.3-0.9,0.6-1.1,1h-0.1l-0.2-1.3h-1.1v9.2h1.4V820.7z"/>
	<path class="st7" d="M711.8,846.3c0,1.9,0.9,2.8,2.7,2.8c0.2,0,0.5,0,0.8-0.1c0.3,0,0.5-0.1,0.7-0.2v-1.1c-0.1,0-0.3,0.1-0.5,0.1
		c-0.2,0-0.5,0.1-0.7,0.1c-0.5,0-0.8-0.2-1.1-0.4c-0.3-0.3-0.4-0.7-0.4-1.3v-5.4h2.7v-1.1h-2.7v-2.1h-0.8l-0.6,2l-1.3,0.6v0.7h1.3
		V846.3z"/>
	<path class="st7" d="M715.7,825.7c0.6,0,1.2,0,1.6-0.1c0.4-0.1,0.9-0.2,1.4-0.5v-1.2c-1,0.4-2,0.6-2.9,0.6c-0.9,0-1.7-0.3-2.2-0.8
		c-0.5-0.6-0.8-1.4-0.8-2.5h6.4v-0.9c0-1.2-0.3-2.2-1-3c-0.7-0.8-1.6-1.1-2.7-1.1c-1.2,0-2.2,0.4-3,1.3c-0.7,0.9-1.1,2.1-1.1,3.5
		c0,1.5,0.4,2.6,1.2,3.5C713.3,825.3,714.3,825.7,715.7,825.7z M713.6,818c0.4-0.5,1-0.7,1.8-0.7c0.7,0,1.3,0.2,1.7,0.7
		c0.4,0.5,0.6,1.1,0.6,2h-4.8C712.9,819.2,713.1,818.5,713.6,818z"/>
	<path class="st7" d="M740,825.7c0.9,0,1.7-0.2,2.3-0.5V824c-0.8,0.3-1.6,0.5-2.4,0.5c-0.9,0-1.6-0.3-2-0.9
		c-0.5-0.6-0.7-1.5-0.7-2.6c0-2.4,0.9-3.6,2.8-3.6c0.3,0,0.6,0,1,0.1c0.4,0.1,0.7,0.2,1,0.3l0.4-1.2c-0.3-0.1-0.6-0.2-1-0.3
		c-0.4-0.1-0.9-0.1-1.3-0.1c-1.4,0-2.4,0.4-3.2,1.3c-0.7,0.8-1.1,2-1.1,3.6c0,1.5,0.4,2.7,1.1,3.5
		C737.6,825.3,738.6,825.7,740,825.7z"/>
	<path class="st7" d="M522,844.6c0,1.2-0.2,2.1-0.7,2.6c-0.4,0.5-1.2,0.8-2.1,0.8c-0.7,0-1.3-0.2-1.6-0.6c-0.3-0.4-0.5-0.9-0.5-1.7
		v-6h-1.4v6c0,1.2,0.3,2,0.8,2.6c0.6,0.5,1.4,0.8,2.5,0.8c0.7,0,1.2-0.1,1.7-0.4c0.5-0.2,0.9-0.6,1.2-1h0.1l0.2,1.2h1.2v-9.2H522
		V844.6z"/>
	<path class="st7" d="M816.7,825.7c0.7,0,1.2-0.1,1.7-0.4c0.5-0.2,0.9-0.6,1.2-1h0.1l0.2,1.2h1.2v-9.2h-1.4v4.8
		c0,1.2-0.2,2.1-0.7,2.6c-0.5,0.5-1.2,0.8-2.1,0.8c-0.7,0-1.3-0.2-1.6-0.6c-0.3-0.4-0.5-0.9-0.5-1.7v-6h-1.4v6c0,1.2,0.3,2,0.8,2.6
		C814.7,825.4,815.5,825.7,816.7,825.7z"/>
	<path class="st7" d="M817,840.9c-0.7,0.8-1,2-1,3.5c0,1.5,0.3,2.7,1,3.5c0.7,0.8,1.6,1.2,2.8,1.2c1.3,0,2.2-0.5,2.9-1.4h0.1
		l0.2,1.2h1.1v-13.1h-1.4v3.8l0,0.6l0.1,0.7h-0.1c-0.7-0.9-1.6-1.4-2.9-1.4C818.6,839.6,817.7,840,817,840.9z M822.1,841.6
		c0.4,0.6,0.7,1.5,0.7,2.8v0.3c0,1.2-0.2,2-0.6,2.5c-0.4,0.5-1.1,0.8-2.1,0.8c-0.8,0-1.5-0.3-1.9-0.9c-0.4-0.6-0.6-1.5-0.6-2.7
		c0-1.2,0.2-2.1,0.7-2.7c0.4-0.6,1.1-1,1.9-1C820.9,840.8,821.6,841,822.1,841.6z"/>
	<path class="st7" d="M517.9,825.7c1.3,0,2.4-0.4,3.1-1.3c0.8-0.8,1.1-2,1.1-3.5c0-1.5-0.4-2.6-1.1-3.5c-0.8-0.9-1.8-1.3-3.1-1.3
		c-1.3,0-2.4,0.4-3.1,1.3c-0.8,0.8-1.1,2-1.1,3.5c0,1,0.2,1.8,0.5,2.5c0.4,0.7,0.8,1.3,1.5,1.7C516.4,825.5,517.1,825.7,517.9,825.7
		z M515.9,818.2c0.5-0.6,1.2-0.9,2.1-0.9c0.9,0,1.6,0.3,2.1,0.9c0.5,0.6,0.7,1.5,0.7,2.7c0,1.2-0.2,2.1-0.7,2.7
		c-0.5,0.6-1.2,0.9-2.1,0.9c-0.9,0-1.6-0.3-2.1-0.9c-0.5-0.6-0.7-1.5-0.7-2.7C515.2,819.7,515.4,818.8,515.9,818.2z"/>
	<rect x="533.4" y="839.8" class="st7" width="1.4" height="9.2"/>
	<path class="st7" d="M529,840.1c-0.5,0.3-0.9,0.8-1.2,1.4h-0.1l-0.2-1.7h-1.2l0,9.2h1.4V844c0-0.9,0.3-1.7,0.8-2.3
		c0.5-0.6,1.2-0.9,1.9-0.9c0.3,0,0.6,0,1,0.1l0.2-1.3c-0.3-0.1-0.7-0.1-1.1-0.1C530,839.6,529.4,839.8,529,840.1z"/>
	<path class="st7" d="M528.8,817.4c0.3,0,0.6,0,1,0.1l0.2-1.3c-0.3-0.1-0.7-0.1-1.1-0.1c-0.6,0-1.1,0.2-1.6,0.5
		c-0.5,0.3-0.9,0.8-1.2,1.4H526l-0.2-1.7h-1.2v9.2h1.4v-4.9c0-0.9,0.3-1.7,0.8-2.3C527.4,817.7,528,817.4,528.8,817.4z"/>
	<path class="st7" d="M509.6,839.6c-0.5,0-1.1,0.1-1.6,0.2c-0.5,0.1-1,0.3-1.5,0.6l0.4,1.1c1-0.5,1.8-0.7,2.6-0.7
		c0.7,0,1.2,0.2,1.5,0.5c0.3,0.3,0.5,0.9,0.5,1.6v0.6l-1.6,0.1c-3,0.1-4.5,1.1-4.5,2.9c0,0.9,0.3,1.5,0.8,2c0.5,0.5,1.2,0.7,2.2,0.7
		c0.7,0,1.3-0.1,1.7-0.3c0.5-0.2,0.9-0.6,1.4-1.2h0.1l0.3,1.3h1v-6.3c0-1.1-0.3-1.9-0.8-2.3C511.6,839.9,510.7,839.6,509.6,839.6z
		 M511.5,845.3c0,0.9-0.3,1.5-0.7,2c-0.5,0.5-1.2,0.7-2,0.7c-0.5,0-1-0.1-1.3-0.4c-0.3-0.3-0.5-0.6-0.5-1.2c0-0.6,0.2-1.1,0.7-1.4
		c0.5-0.3,1.3-0.5,2.4-0.5l1.4-0.1V845.3z"/>
	<rect x="561.5" y="816.3" class="st7" width="1.4" height="9.2"/>
	<polygon class="st7" points="512.4,824.2 506.9,824.2 506.9,813.2 505.5,813.2 505.5,825.5 512.4,825.5 	"/>
	<path class="st7" d="M801.5,825.7c0.6,0,1.2,0,1.6-0.1c0.4-0.1,0.9-0.2,1.4-0.5v-1.2c-1,0.4-2,0.6-2.9,0.6c-0.9,0-1.7-0.3-2.2-0.8
		c-0.5-0.6-0.8-1.4-0.8-2.5h6.4v-0.9c0-1.2-0.3-2.2-1-3c-0.7-0.8-1.6-1.1-2.7-1.1c-1.2,0-2.2,0.4-3,1.3c-0.7,0.9-1.1,2.1-1.1,3.5
		c0,1.5,0.4,2.6,1.2,3.5C799.1,825.3,800.2,825.7,801.5,825.7z M799.4,818c0.4-0.5,1-0.7,1.8-0.7c0.7,0,1.3,0.2,1.7,0.7
		c0.4,0.5,0.6,1.1,0.6,2h-4.8C798.7,819.2,799,818.5,799.4,818z"/>
	<path class="st7" d="M562.2,814.7c0.2,0,0.4-0.1,0.6-0.2c0.2-0.2,0.2-0.4,0.2-0.7c0-0.3-0.1-0.5-0.2-0.7c-0.2-0.2-0.4-0.2-0.6-0.2
		c-0.2,0-0.4,0.1-0.6,0.2c-0.2,0.2-0.2,0.4-0.2,0.7c0,0.3,0.1,0.5,0.2,0.7C561.8,814.6,562,814.7,562.2,814.7z"/>
	<path class="st7" d="M496.9,846.8L496.9,846.8l-4-10.2h-2.2V849h1.3v-7.8c0-1.2,0-2.2-0.1-3.1h0.1l4.2,10.9h1.1l4.2-10.9h0.1
		c-0.1,1.1-0.1,2.1-0.1,3v7.9h1.4v-12.3h-2.1L496.9,846.8z"/>
	<path class="st7" d="M807.4,822.9c0,1.9,0.9,2.8,2.7,2.8c0.2,0,0.5,0,0.8-0.1c0.3,0,0.5-0.1,0.7-0.2v-1.1c-0.1,0-0.3,0.1-0.5,0.1
		c-0.2,0-0.5,0.1-0.7,0.1c-0.5,0-0.8-0.2-1.1-0.4c-0.3-0.3-0.4-0.7-0.4-1.3v-5.4h2.7v-1.1h-2.7v-2.1l-0.8,0l-0.6,2l-1.3,0.6v0.7h1.3
		V822.9z"/>
	<path class="st7" d="M553.6,843.7c-0.8-0.3-1.3-0.5-1.6-0.7c-0.3-0.2-0.5-0.3-0.6-0.5c-0.1-0.2-0.2-0.4-0.2-0.6
		c0-0.4,0.2-0.7,0.5-0.9c0.3-0.2,0.8-0.3,1.5-0.3c0.8,0,1.6,0.2,2.5,0.6l0.5-1.1c-0.9-0.4-1.9-0.6-2.9-0.6c-1.1,0-1.9,0.2-2.5,0.7
		c-0.6,0.4-0.9,1-0.9,1.8c0,0.4,0.1,0.8,0.3,1.1c0.2,0.3,0.4,0.6,0.8,0.8c0.4,0.2,1,0.5,1.8,0.8c0.9,0.3,1.5,0.7,1.8,0.9
		c0.3,0.3,0.5,0.6,0.5,0.9c0,0.5-0.2,0.8-0.6,1.1c-0.4,0.2-1,0.3-1.7,0.3c-0.5,0-1-0.1-1.5-0.2c-0.5-0.1-1-0.3-1.4-0.5v1.3
		c0.7,0.4,1.6,0.6,2.9,0.6c1.2,0,2.1-0.2,2.7-0.7c0.6-0.5,1-1.1,1-2c0-0.6-0.2-1.1-0.6-1.5C555.4,844.5,554.7,844.1,553.6,843.7z"/>
	<path class="st7" d="M835.2,839.6c-1.3,0-2.4,0.4-3.1,1.3c-0.8,0.8-1.1,2-1.1,3.5c0,1,0.2,1.8,0.5,2.5c0.3,0.7,0.8,1.3,1.5,1.7
		c0.6,0.4,1.4,0.6,2.2,0.6c1.3,0,2.4-0.4,3.1-1.3c0.8-0.8,1.1-2,1.1-3.5c0-1.5-0.4-2.6-1.1-3.5C837.5,840,836.5,839.6,835.2,839.6z
		 M837.2,847.1c-0.5,0.6-1.2,0.9-2.1,0.9c-0.9,0-1.6-0.3-2.1-0.9c-0.5-0.6-0.7-1.5-0.7-2.7c0-1.2,0.2-2.1,0.7-2.7
		c0.5-0.6,1.2-0.9,2.1-0.9c0.9,0,1.6,0.3,2.1,0.9c0.5,0.6,0.7,1.5,0.7,2.7C838,845.5,837.7,846.4,837.2,847.1z"/>
	<path class="st7" d="M839,816.1c-0.5,0-1.1,0.1-1.6,0.2c-0.5,0.1-1,0.3-1.5,0.6l0.4,1.1c1-0.5,1.8-0.7,2.6-0.7
		c0.7,0,1.2,0.2,1.5,0.5c0.3,0.3,0.5,0.9,0.5,1.6v0.6l-1.6,0.1c-3,0.1-4.5,1.1-4.5,2.9c0,0.9,0.3,1.5,0.8,2c0.5,0.5,1.2,0.7,2.2,0.7
		c0.7,0,1.3-0.1,1.7-0.3c0.5-0.2,0.9-0.6,1.4-1.2h0.1l0.3,1.3h1v-6.3c0-1.1-0.3-1.9-0.8-2.3C840.9,816.4,840.1,816.1,839,816.1z
		 M840.8,821.8c0,0.9-0.3,1.5-0.7,2c-0.5,0.5-1.2,0.7-2,0.7c-0.5,0-1-0.1-1.3-0.4c-0.3-0.3-0.5-0.6-0.5-1.2c0-0.6,0.2-1.1,0.7-1.4
		c0.5-0.3,1.3-0.5,2.4-0.5l1.4-0.1V821.8z"/>
	<path class="st7" d="M828.4,870.4c-0.3,0-0.6,0.1-0.7,0.3c-0.2,0.2-0.3,0.5-0.3,0.9c0,0.4,0.1,0.7,0.3,0.9s0.4,0.3,0.7,0.3
		c0.3,0,0.6-0.1,0.8-0.3c0.2-0.2,0.3-0.5,0.3-0.8c0-0.4-0.1-0.7-0.3-0.9C829,870.5,828.7,870.4,828.4,870.4z"/>
	<rect x="827.1" y="839.8" class="st7" width="1.4" height="9.2"/>
	<path class="st7" d="M851.3,816.2l0,0.6l0.1,0.7h-0.1c-0.7-0.9-1.6-1.4-2.9-1.4c-1.2,0-2.1,0.4-2.8,1.3c-0.7,0.8-1,2-1,3.5
		c0,1.5,0.3,2.7,1,3.5c0.7,0.8,1.6,1.2,2.8,1.2c1.3,0,2.3-0.5,2.9-1.4h0.1l0.2,1.2h1.1v-13.1h-1.4V816.2z M851.3,821.2
		c0,1.2-0.2,2-0.6,2.5c-0.4,0.5-1.1,0.8-2.1,0.8c-0.8,0-1.5-0.3-1.9-0.9c-0.4-0.6-0.6-1.5-0.6-2.7c0-1.2,0.2-2.1,0.7-2.7
		c0.4-0.6,1.1-1,1.9-1c1,0,1.7,0.3,2.1,0.8c0.4,0.6,0.7,1.5,0.7,2.8V821.2z"/>
	<path class="st7" d="M858.1,839.6c-1.2,0-2.2,0.4-3,1.3c-0.7,0.9-1.1,2.1-1.1,3.5c0,1.5,0.4,2.6,1.2,3.5c0.8,0.8,1.9,1.2,3.2,1.2
		c0.6,0,1.2,0,1.6-0.1c0.4-0.1,0.9-0.2,1.4-0.5v-1.2c-1,0.4-2,0.6-2.9,0.6c-0.9,0-1.7-0.3-2.2-0.8c-0.5-0.6-0.8-1.4-0.8-2.5h6.4
		v-0.9c0-1.2-0.3-2.2-1-3C860.2,840,859.2,839.6,858.1,839.6z M855.5,843.5c0.1-0.9,0.3-1.5,0.8-2c0.4-0.5,1-0.7,1.8-0.7
		c0.7,0,1.3,0.2,1.7,0.7c0.4,0.5,0.6,1.1,0.6,2H855.5z"/>
	<path class="st7" d="M867.1,824.4c0.7-0.8,1-2,1-3.5c0-1.5-0.3-2.7-1-3.5c-0.7-0.8-1.6-1.3-2.8-1.3c-0.6,0-1.2,0.1-1.6,0.3
		c-0.5,0.2-0.9,0.6-1.3,1.1h-0.1l-0.2-1.3H860v13.4h1.4v-3.8c0-0.5,0-1-0.1-1.5h0.1c0.3,0.5,0.8,0.8,1.2,1c0.5,0.2,1,0.3,1.6,0.3
		C865.5,825.7,866.5,825.3,867.1,824.4z M862.1,823.7c-0.4-0.6-0.7-1.5-0.7-2.8v-0.3c0-1.1,0.2-2,0.7-2.5c0.4-0.5,1.1-0.8,2-0.8
		c0.8,0,1.5,0.3,1.9,0.9c0.5,0.6,0.7,1.5,0.7,2.6c0,1.1-0.2,2-0.7,2.7c-0.5,0.6-1.1,1-1.9,1C863.2,824.5,862.5,824.2,862.1,823.7z"
		/>
	<path class="st7" d="M827.8,838.2c0.2,0,0.4-0.1,0.6-0.2c0.2-0.2,0.2-0.4,0.2-0.7c0-0.3-0.1-0.5-0.2-0.7c-0.2-0.2-0.4-0.2-0.6-0.2
		c-0.2,0-0.4,0.1-0.6,0.2c-0.2,0.2-0.2,0.4-0.2,0.7s0.1,0.6,0.2,0.7C827.4,838.1,827.6,838.2,827.8,838.2z"/>
	<path class="st7" d="M849.5,843.7c-0.8-0.3-1.3-0.5-1.6-0.7c-0.3-0.2-0.5-0.3-0.6-0.5c-0.1-0.2-0.2-0.4-0.2-0.6
		c0-0.4,0.2-0.7,0.5-0.9c0.3-0.2,0.8-0.3,1.5-0.3c0.7,0,1.6,0.2,2.5,0.6l0.5-1.1c-0.9-0.4-1.9-0.6-2.9-0.6c-1.1,0-1.9,0.2-2.5,0.7
		c-0.6,0.4-0.9,1-0.9,1.8c0,0.4,0.1,0.8,0.3,1.1c0.2,0.3,0.4,0.6,0.8,0.8c0.4,0.2,1,0.5,1.8,0.8c0.9,0.3,1.5,0.7,1.8,0.9
		c0.3,0.3,0.5,0.6,0.5,0.9c0,0.5-0.2,0.8-0.6,1.1c-0.4,0.2-1,0.3-1.7,0.3c-0.5,0-1-0.1-1.5-0.2c-0.5-0.1-1-0.3-1.4-0.5v1.3
		c0.7,0.4,1.6,0.6,2.9,0.6c1.2,0,2.1-0.2,2.7-0.7c0.6-0.5,1-1.1,1-2c0-0.6-0.2-1.1-0.6-1.5C851.3,844.5,850.6,844.1,849.5,843.7z"/>
	<path class="st7" d="M814.1,844.4c0-1.5-0.4-2.6-1.1-3.5c-0.8-0.9-1.8-1.3-3.1-1.3c-1.3,0-2.4,0.4-3.1,1.3c-0.8,0.8-1.1,2-1.1,3.5
		c0,1,0.2,1.8,0.5,2.5s0.8,1.3,1.5,1.7c0.6,0.4,1.4,0.6,2.2,0.6c1.3,0,2.4-0.4,3.1-1.3C813.7,847,814.1,845.9,814.1,844.4z
		 M811.9,847.1c-0.5,0.6-1.2,0.9-2.1,0.9c-0.9,0-1.6-0.3-2.1-0.9c-0.5-0.6-0.7-1.5-0.7-2.7c0-1.2,0.2-2.1,0.7-2.7
		c0.5-0.6,1.2-0.9,2.1-0.9c0.9,0,1.6,0.3,2.1,0.9c0.5,0.6,0.7,1.5,0.7,2.7C812.6,845.5,812.4,846.4,811.9,847.1z"/>
	<path class="st7" d="M829.1,817.5l0.2-1.3c-0.3-0.1-0.7-0.1-1.1-0.1c-0.6,0-1.1,0.2-1.6,0.5c-0.5,0.3-0.9,0.8-1.2,1.4l-0.1,0
		l-0.2-1.7H824v9.2h1.4v-4.9c0-0.9,0.3-1.7,0.8-2.3c0.5-0.6,1.2-0.9,1.9-0.9C828.4,817.4,828.7,817.4,829.1,817.5z"/>
	<path class="st7" d="M791.7,822.9c0,1.9,0.9,2.8,2.7,2.8c0.2,0,0.5,0,0.8-0.1c0.3,0,0.5-0.1,0.7-0.2v-1.1c-0.1,0-0.3,0.1-0.5,0.1
		c-0.2,0-0.5,0.1-0.7,0.1c-0.5,0-0.8-0.2-1.1-0.4c-0.3-0.3-0.4-0.7-0.4-1.3v-5.4h2.7v-1.1h-2.7v-2.1h-0.8l-0.6,2l-1.3,0.6v0.7l1.3,0
		V822.9z"/>
	<path class="st7" d="M797.6,868.1c0,1.2-0.2,2.1-0.7,2.6c-0.4,0.5-1.2,0.8-2.1,0.8c-0.7,0-1.3-0.2-1.6-0.6
		c-0.3-0.4-0.5-0.9-0.5-1.7v-6h-1.4v6c0,1.2,0.3,2,0.8,2.6c0.6,0.5,1.4,0.8,2.5,0.8c0.7,0,1.2-0.1,1.7-0.4c0.5-0.2,0.9-0.6,1.2-1
		h0.1l0.2,1.2h1.2v-9.2h-1.4V868.1z"/>
	<path class="st7" d="M787.1,817.4c0.3,0,0.6,0,1,0.1c0.4,0.1,0.7,0.2,1,0.3l0.4-1.2c-0.3-0.1-0.6-0.2-1-0.3
		c-0.4-0.1-0.9-0.1-1.3-0.1c-1.4,0-2.4,0.4-3.2,1.3c-0.7,0.8-1.1,2-1.1,3.6c0,1.5,0.4,2.7,1.1,3.5c0.7,0.8,1.8,1.2,3.1,1.2
		c0.9,0,1.7-0.2,2.3-0.5V824c-0.8,0.3-1.6,0.5-2.4,0.5c-0.9,0-1.6-0.3-2-0.9c-0.5-0.6-0.7-1.5-0.7-2.6
		C784.3,818.6,785.2,817.4,787.1,817.4z"/>
	<path class="st7" d="M794.4,849.2c1.3,0,2.3-0.5,2.9-1.4h0.1l0.2,1.2h1.1v-13.1h-1.4v3.8l0,0.6l0.1,0.7l-0.1,0
		c-0.7-0.9-1.6-1.4-2.9-1.4c-1.2,0-2.1,0.4-2.8,1.3c-0.7,0.8-1,2-1,3.5c0,1.5,0.3,2.7,1,3.5C792.2,848.7,793.2,849.2,794.4,849.2z
		 M792.7,841.7c0.4-0.6,1.1-1,1.9-1c1,0,1.6,0.3,2.1,0.8c0.4,0.6,0.7,1.5,0.7,2.8v0.3c0,1.2-0.2,2-0.6,2.5c-0.4,0.5-1.1,0.8-2.1,0.8
		c-0.8,0-1.5-0.3-1.9-0.9c-0.4-0.6-0.7-1.5-0.7-2.7C792,843.3,792.2,842.4,792.7,841.7z"/>
	<path class="st7" d="M805.4,863.1c-0.5,0-1.1,0.1-1.6,0.2c-0.5,0.1-1,0.3-1.5,0.6l0.4,1.1c1-0.5,1.8-0.7,2.6-0.7
		c0.7,0,1.2,0.2,1.5,0.5c0.3,0.3,0.5,0.9,0.5,1.6v0.6l-1.6,0c-3,0.1-4.5,1.1-4.5,2.9c0,0.9,0.3,1.5,0.8,2c0.5,0.5,1.2,0.7,2.2,0.7
		c0.7,0,1.3-0.1,1.7-0.3c0.5-0.2,0.9-0.6,1.4-1.2h0.1l0.3,1.3h1v-6.3c0-1.1-0.3-1.9-0.8-2.3C807.4,863.3,806.5,863.1,805.4,863.1z
		 M807.3,868.8c0,0.9-0.2,1.5-0.7,2c-0.5,0.5-1.2,0.7-2.1,0.7c-0.5,0-1-0.1-1.3-0.4c-0.3-0.3-0.5-0.6-0.5-1.2c0-0.6,0.2-1.1,0.7-1.4
		c0.5-0.3,1.3-0.5,2.4-0.5l1.4-0.1V868.8z"/>
	<path class="st7" d="M821.6,863.1c-0.7,0-1.3,0.1-1.8,0.4c-0.5,0.3-0.9,0.7-1.2,1.2h-0.1c-0.4-1-1.4-1.6-2.8-1.6
		c-0.6,0-1.1,0.1-1.6,0.4c-0.5,0.3-0.9,0.6-1.1,1h-0.1l-0.2-1.3h-1.1v9.2h1.4v-4.8c0-1.2,0.2-2.1,0.6-2.6c0.4-0.5,1-0.8,1.9-0.8
		c0.7,0,1.2,0.2,1.5,0.5c0.3,0.4,0.5,0.9,0.5,1.7v6h1.4v-5.2c0-1,0.2-1.8,0.6-2.3c0.4-0.5,1.1-0.7,1.9-0.7c0.7,0,1.1,0.2,1.5,0.5
		c0.3,0.4,0.5,0.9,0.5,1.7v6h1.4v-6c0-1.2-0.3-2-0.8-2.6C823.4,863.3,822.6,863.1,821.6,863.1z"/>
	<path class="st7" d="M874.3,839.6c-0.7,0-1.3,0.1-1.8,0.4c-0.5,0.3-0.9,0.7-1.2,1.1h-0.1c-0.4-1-1.4-1.6-2.8-1.6
		c-0.6,0-1.1,0.1-1.6,0.4c-0.5,0.3-0.9,0.6-1.1,1h-0.1l-0.2-1.3h-1.1v9.2h1.4v-4.8c0-1.2,0.2-2.1,0.6-2.6c0.4-0.5,1-0.8,1.9-0.8
		c0.7,0,1.2,0.2,1.5,0.6c0.3,0.4,0.5,0.9,0.5,1.6v6h1.4v-5.2c0-1,0.2-1.8,0.6-2.3c0.4-0.5,1.1-0.7,1.9-0.7c0.7,0,1.1,0.2,1.5,0.6
		c0.3,0.4,0.5,0.9,0.5,1.6v6h1.4v-6c0-1.2-0.3-2-0.8-2.6C876.1,839.9,875.3,839.6,874.3,839.6z"/>
	<path class="st7" d="M952.1,836.3c-0.2,0-0.4,0.1-0.6,0.2c-0.2,0.2-0.2,0.4-0.2,0.7s0.1,0.6,0.2,0.7c0.2,0.2,0.4,0.2,0.6,0.2
		c0.2,0,0.4-0.1,0.6-0.2c0.2-0.2,0.2-0.4,0.2-0.7c0-0.3-0.1-0.5-0.2-0.7C952.5,836.4,952.3,836.3,952.1,836.3z"/>
	<rect x="942.7" y="835.9" class="st7" width="1.4" height="13.1"/>
	<path class="st7" d="M945.5,823.5c-0.3,0-0.6,0.1-0.7,0.3c-0.2,0.2-0.3,0.5-0.3,0.9c0,0.4,0.1,0.7,0.3,0.9c0.2,0.2,0.4,0.3,0.7,0.3
		c0.3,0,0.6-0.1,0.8-0.3c0.2-0.2,0.3-0.5,0.3-0.8c0-0.4-0.1-0.7-0.3-0.9C946.1,823.6,945.8,823.5,945.5,823.5z"/>
	<path class="st7" d="M942.9,824.4c-0.1,0-0.3,0.1-0.5,0.1c-0.2,0-0.5,0.1-0.7,0.1c-0.5,0-0.8-0.2-1.1-0.4c-0.3-0.3-0.4-0.7-0.4-1.3
		v-5.4h2.7v-1.1h-2.7v-2.1h-0.8l-0.6,2l-1.3,0.6v0.7h1.3v5.5c0,1.9,0.9,2.8,2.7,2.8c0.2,0,0.5,0,0.8-0.1c0.3,0,0.5-0.1,0.7-0.2
		V824.4z"/>
	<path class="st7" d="M936,839.6c-1.3,0-2.4,0.4-3.1,1.3c-0.8,0.8-1.1,2-1.1,3.5c0,1,0.2,1.8,0.5,2.5c0.3,0.7,0.8,1.3,1.5,1.7
		c0.6,0.4,1.4,0.6,2.2,0.6c1.3,0,2.4-0.4,3.1-1.3c0.8-0.8,1.1-2,1.1-3.5c0-1.5-0.4-2.6-1.1-3.5C938.3,840,937.3,839.6,936,839.6z
		 M938.1,847.1c-0.5,0.6-1.2,0.9-2.1,0.9c-0.9,0-1.6-0.3-2.1-0.9c-0.5-0.6-0.7-1.5-0.7-2.7c0-1.2,0.2-2.1,0.7-2.7
		c0.5-0.6,1.2-0.9,2.1-0.9c0.9,0,1.6,0.3,2.1,0.9c0.5,0.6,0.7,1.5,0.7,2.7C938.8,845.5,938.5,846.4,938.1,847.1z"/>
	<path class="st7" d="M784.9,839.6c-1.2,0-2.2,0.4-3,1.3c-0.7,0.9-1.1,2.1-1.1,3.5c0,1.5,0.4,2.6,1.2,3.5c0.8,0.8,1.9,1.2,3.2,1.2
		c0.6,0,1.2,0,1.6-0.1c0.4-0.1,0.9-0.2,1.4-0.5v-1.2c-1,0.4-2,0.6-2.9,0.6c-0.9,0-1.7-0.3-2.2-0.8c-0.5-0.6-0.8-1.4-0.8-2.5h6.4
		v-0.9c0-1.2-0.3-2.2-1-3C787,840,786.1,839.6,784.9,839.6z M782.4,843.5c0.1-0.9,0.3-1.5,0.8-2c0.4-0.5,1-0.7,1.8-0.7
		c0.7,0,1.3,0.2,1.7,0.7c0.4,0.5,0.6,1.1,0.6,2H782.4z"/>
	<rect x="929.9" y="812.4" class="st7" width="1.4" height="13.1"/>
	<path class="st7" d="M958.9,843.7c-0.8-0.3-1.3-0.5-1.6-0.7c-0.3-0.2-0.5-0.3-0.6-0.5c-0.1-0.2-0.2-0.4-0.2-0.6
		c0-0.4,0.2-0.7,0.5-0.9c0.3-0.2,0.8-0.3,1.5-0.3c0.7,0,1.6,0.2,2.5,0.6l0.5-1.1c-0.9-0.4-1.9-0.6-2.9-0.6c-1.1,0-1.9,0.2-2.5,0.7
		c-0.6,0.4-0.9,1-0.9,1.8c0,0.4,0.1,0.8,0.3,1.1c0.2,0.3,0.4,0.6,0.8,0.8c0.4,0.2,1,0.5,1.8,0.8c0.9,0.3,1.5,0.7,1.8,0.9
		c0.3,0.3,0.5,0.6,0.5,0.9c0,0.5-0.2,0.8-0.6,1.1c-0.4,0.2-1,0.3-1.7,0.3c-0.5,0-1-0.1-1.5-0.2c-0.5-0.1-1-0.3-1.4-0.5v1.3
		c0.7,0.4,1.6,0.6,2.9,0.6c1.2,0,2.1-0.2,2.7-0.7c0.6-0.5,1-1.1,1-2c0-0.6-0.2-1.1-0.6-1.5C960.8,844.5,960,844.1,958.9,843.7z"/>
	<rect x="951.4" y="839.8" class="st7" width="1.4" height="9.2"/>
	<rect x="947" y="835.9" class="st7" width="1.4" height="13.1"/>
	<path class="st7" d="M886.9,817.4c0.3,0,0.6,0,1,0.1c0.4,0.1,0.7,0.2,1,0.3l0.4-1.2c-0.3-0.1-0.6-0.2-1-0.3
		c-0.4-0.1-0.9-0.1-1.3-0.1c-1.4,0-2.4,0.4-3.2,1.3c-0.7,0.8-1.1,2-1.1,3.6c0,1.5,0.4,2.7,1.1,3.5c0.7,0.8,1.8,1.2,3.1,1.2
		c0.9,0,1.7-0.2,2.3-0.5V824c-0.8,0.3-1.6,0.5-2.4,0.5c-0.9,0-1.6-0.3-2-0.9c-0.5-0.6-0.7-1.5-0.7-2.6
		C884.1,818.6,885,817.4,886.9,817.4z"/>
	<path class="st7" d="M926.3,839.6c-0.7,0-1.3,0.1-1.8,0.4c-0.5,0.3-0.9,0.7-1.2,1.1h-0.1c-0.4-1-1.4-1.6-2.8-1.6
		c-0.6,0-1.1,0.1-1.6,0.4c-0.5,0.3-0.9,0.6-1.1,1h-0.1l-0.2-1.3h-1.1v9.2h1.4v-4.8c0-1.2,0.2-2.1,0.6-2.6c0.4-0.5,1.1-0.8,1.9-0.8
		c0.7,0,1.2,0.2,1.5,0.6c0.3,0.4,0.5,0.9,0.5,1.6v6h1.4v-5.2c0-1,0.2-1.8,0.6-2.3c0.4-0.5,1.1-0.7,1.9-0.7c0.7,0,1.1,0.2,1.5,0.6
		c0.3,0.4,0.5,0.9,0.5,1.7v6h1.4v-6c0-1.2-0.3-2-0.8-2.6C928.1,839.9,927.3,839.6,926.3,839.6z"/>
	<path class="st7" d="M894.4,839.6c-1.2,0-2.2,0.4-2.9,1.3c-0.7,0.9-1.1,2.1-1.1,3.5c0,1.5,0.4,2.6,1.2,3.5c0.8,0.8,1.9,1.2,3.2,1.2
		c0.6,0,1.2,0,1.6-0.1c0.4-0.1,0.9-0.2,1.4-0.5v-1.2c-1,0.4-2,0.6-2.9,0.6c-0.9,0-1.7-0.3-2.2-0.8c-0.5-0.6-0.8-1.4-0.8-2.5h6.4
		v-0.9c0-1.2-0.3-2.2-1-3C896.4,840,895.5,839.6,894.4,839.6z M891.8,843.5c0.1-0.9,0.3-1.5,0.8-2c0.4-0.5,1-0.7,1.8-0.7
		c0.7,0,1.3,0.2,1.7,0.7c0.4,0.5,0.6,1.1,0.6,2H891.8z"/>
	<path class="st7" d="M880.9,823c0-0.6-0.2-1.1-0.6-1.5c-0.4-0.4-1.1-0.8-2.2-1.2c-0.8-0.3-1.3-0.5-1.6-0.7
		c-0.3-0.2-0.5-0.3-0.6-0.5c-0.1-0.2-0.2-0.4-0.2-0.6c0-0.4,0.2-0.7,0.5-0.9c0.3-0.2,0.8-0.3,1.5-0.3c0.7,0,1.6,0.2,2.5,0.6l0.5-1.1
		c-0.9-0.4-1.9-0.6-2.9-0.6c-1.1,0-1.9,0.2-2.5,0.7c-0.6,0.4-0.9,1-0.9,1.8c0,0.4,0.1,0.8,0.3,1.1c0.2,0.3,0.4,0.6,0.8,0.8
		c0.4,0.2,1,0.5,1.8,0.8c0.9,0.3,1.5,0.7,1.8,0.9c0.3,0.3,0.5,0.6,0.5,0.9c0,0.5-0.2,0.8-0.6,1.1c-0.4,0.2-1,0.4-1.7,0.4
		c-0.5,0-1-0.1-1.5-0.2c-0.5-0.1-1-0.3-1.4-0.5v1.3c0.7,0.4,1.6,0.6,2.9,0.6c1.2,0,2.1-0.2,2.7-0.7
		C880.6,824.5,880.9,823.9,880.9,823z"/>
	<path class="st7" d="M884.6,839.6c-0.6,0-1.2,0.1-1.6,0.3c-0.5,0.2-0.9,0.6-1.3,1.1h-0.1l-0.2-1.3h-1.1v13.4h1.4v-3.8
		c0-0.5,0-1-0.1-1.5h0.1c0.3,0.5,0.8,0.8,1.2,1c0.5,0.2,1,0.3,1.6,0.3c1.2,0,2.1-0.4,2.8-1.3c0.7-0.8,1-2,1-3.5c0-1.5-0.3-2.7-1-3.5
		C886.7,840,885.8,839.6,884.6,839.6z M886.3,847c-0.5,0.6-1.1,1-1.9,1c-1,0-1.6-0.3-2.1-0.8c-0.4-0.6-0.7-1.5-0.7-2.8v-0.3
		c0-1.1,0.2-2,0.7-2.5c0.4-0.5,1.1-0.8,2-0.8c0.8,0,1.5,0.3,1.9,0.9c0.4,0.6,0.7,1.5,0.7,2.6C886.9,845.5,886.7,846.4,886.3,847z"/>
	<path class="st7" d="M902,819.5v6h1.4v-6c0-1.2-0.3-2-0.8-2.6c-0.6-0.5-1.4-0.8-2.5-0.8c-0.6,0-1.2,0.1-1.7,0.4
		c-0.5,0.3-0.9,0.6-1.2,1.1h-0.1l-0.2-1.3h-1.1v9.2h1.4v-4.8c0-1.2,0.2-2.1,0.7-2.6c0.4-0.5,1.2-0.8,2.1-0.8c0.7,0,1.3,0.2,1.6,0.6
		C901.9,818.2,902,818.8,902,819.5z"/>
	<path class="st7" d="M909.4,816.1c-1.1,0-2,0.3-2.6,0.8c-0.6,0.5-0.9,1.3-0.9,2.3c0,0.6,0.2,1.1,0.5,1.6c0.3,0.5,0.7,0.8,1.2,1
		c-0.4,0.2-0.7,0.5-0.9,0.7c-0.2,0.3-0.3,0.5-0.3,0.9c0,0.3,0.1,0.6,0.2,0.8c0.2,0.2,0.4,0.4,0.6,0.5c-0.6,0.1-1.2,0.4-1.5,0.8
		c-0.4,0.4-0.5,0.9-0.5,1.5c0,0.8,0.3,1.4,1,1.9c0.7,0.4,1.6,0.7,2.8,0.7c1.6,0,2.8-0.3,3.6-0.8c0.8-0.5,1.2-1.3,1.2-2.3
		c0-0.8-0.3-1.4-0.8-1.8c-0.5-0.4-1.3-0.6-2.3-0.6H909c-0.5,0-0.9-0.1-1.1-0.2c-0.2-0.1-0.3-0.3-0.3-0.6c0-0.5,0.3-0.9,0.9-1.2
		c0.2,0,0.5,0.1,0.8,0.1c1.1,0,1.9-0.3,2.5-0.8c0.6-0.5,0.9-1.3,0.9-2.2c0-0.4-0.1-0.8-0.2-1.1c-0.1-0.3-0.3-0.6-0.4-0.8l1.7-0.2
		v-0.9h-3.2C910.3,816.2,909.9,816.1,909.4,816.1z M908.5,825.3h1.7c0.9,0,1.4,0.1,1.7,0.3c0.3,0.2,0.5,0.5,0.5,1
		c0,0.6-0.3,1.1-0.9,1.4c-0.6,0.3-1.4,0.5-2.6,0.5c-0.8,0-1.4-0.1-1.8-0.4c-0.4-0.3-0.6-0.6-0.6-1.1c0-0.6,0.2-1,0.5-1.3
		C907.4,825.5,907.9,825.3,908.5,825.3z M911.4,819.2c0,1.3-0.7,2-2,2c-0.7,0-1.2-0.2-1.5-0.5c-0.4-0.3-0.5-0.8-0.5-1.5
		c0-0.7,0.2-1.2,0.5-1.6c0.4-0.4,0.9-0.5,1.5-0.5C910.7,817.1,911.4,817.8,911.4,819.2z"/>
	<path class="st7" d="M903.1,840.1c-0.5,0.3-0.9,0.8-1.2,1.4h-0.1l-0.2-1.7h-1.2v9.2h1.4V844c0-0.9,0.3-1.7,0.8-2.3
		c0.5-0.6,1.2-0.9,1.9-0.9c0.3,0,0.6,0,1,0.1l0.2-1.3c-0.3-0.1-0.7-0.1-1.1-0.1C904.1,839.6,903.6,839.8,903.1,840.1z"/>
	<path class="st7" d="M907.5,847c-0.1,0.5-0.2,1.2-0.4,2.1c-0.2,0.9-0.4,1.6-0.5,2.2h1c0.3-0.6,0.6-1.3,0.9-2.1
		c0.3-0.7,0.5-1.4,0.6-2L909,847H907.5z"/>
	<path class="st7" d="M649.1,820.9c0-1.5-0.4-2.6-1.1-3.5c-0.8-0.9-1.8-1.3-3.1-1.3c-1.3,0-2.4,0.4-3.1,1.3c-0.8,0.8-1.1,2-1.1,3.5
		c0,1,0.2,1.8,0.5,2.5c0.3,0.7,0.8,1.3,1.5,1.7c0.6,0.4,1.4,0.6,2.2,0.6c1.3,0,2.4-0.4,3.1-1.3C648.7,823.6,649.1,822.4,649.1,820.9
		z M646.9,823.6c-0.5,0.6-1.2,0.9-2.1,0.9c-0.9,0-1.6-0.3-2.1-0.9c-0.5-0.6-0.7-1.5-0.7-2.7c0-1.2,0.2-2.1,0.7-2.7
		c0.5-0.6,1.2-0.9,2.1-0.9c0.9,0,1.6,0.3,2.1,0.9c0.5,0.6,0.7,1.5,0.7,2.7C647.6,822.1,647.4,823,646.9,823.6z"/>
	<rect x="671.3" y="816.3" class="st7" width="1.4" height="9.2"/>
	<path class="st7" d="M787.1,864.5L787.1,864.5c-0.8-1-1.7-1.4-3-1.4c-1.2,0-2.1,0.4-2.8,1.3c-0.7,0.9-1,2-1,3.5
		c0,1.5,0.3,2.7,1,3.5c0.7,0.8,1.6,1.3,2.8,1.3c1.3,0,2.3-0.5,2.9-1.4h0.1c-0.1,0.4-0.1,0.9-0.1,1.4v3.9h1.4v-13.4h-1.1L787.1,864.5
		z M787,868.2c0,1.2-0.3,2-0.7,2.5c-0.4,0.5-1.1,0.8-2,0.8c-0.8,0-1.5-0.3-1.9-0.9c-0.4-0.6-0.6-1.5-0.6-2.7c0-1.2,0.2-2.1,0.7-2.7
		c0.4-0.6,1.1-1,1.9-1c0.9,0,1.6,0.3,2.1,0.9c0.4,0.6,0.7,1.5,0.7,2.8V868.2z"/>
	<path class="st7" d="M668.4,849.2c0.6,0,1.2,0,1.6-0.1c0.4-0.1,0.9-0.2,1.4-0.5v-1.2c-1,0.4-2,0.6-2.9,0.6c-0.9,0-1.7-0.3-2.2-0.8
		c-0.5-0.6-0.8-1.4-0.8-2.5h6.4v-0.9c0-1.2-0.3-2.2-1-3c-0.7-0.8-1.6-1.1-2.7-1.1c-1.2,0-2.2,0.4-3,1.3c-0.7,0.9-1.1,2.1-1.1,3.5
		c0,1.5,0.4,2.6,1.2,3.5C666,848.7,667.1,849.2,668.4,849.2z M666.3,841.5c0.4-0.5,1-0.7,1.8-0.7c0.7,0,1.3,0.2,1.7,0.7
		c0.4,0.5,0.6,1.1,0.6,2h-4.8C665.6,842.6,665.8,842,666.3,841.5z"/>
	<path class="st7" d="M667.1,824.2c-0.4,0.2-1,0.4-1.7,0.4c-0.5,0-1-0.1-1.5-0.2c-0.5-0.1-1-0.3-1.4-0.5v1.3
		c0.7,0.4,1.6,0.6,2.9,0.6c1.2,0,2.1-0.2,2.7-0.7c0.6-0.5,1-1.1,1-2c0-0.6-0.2-1.1-0.6-1.5c-0.4-0.4-1.1-0.8-2.2-1.2
		c-0.8-0.3-1.3-0.5-1.6-0.7c-0.3-0.2-0.5-0.3-0.6-0.5c-0.1-0.2-0.2-0.4-0.2-0.6c0-0.4,0.2-0.7,0.5-0.9c0.3-0.2,0.8-0.3,1.5-0.3
		c0.8,0,1.6,0.2,2.5,0.6l0.5-1.1c-0.9-0.4-1.9-0.6-2.9-0.6c-1.1,0-1.9,0.2-2.5,0.7c-0.6,0.4-0.9,1-0.9,1.8c0,0.4,0.1,0.8,0.3,1.1
		c0.2,0.3,0.4,0.6,0.8,0.8c0.4,0.2,1,0.5,1.8,0.8c0.9,0.3,1.5,0.7,1.8,0.9c0.3,0.3,0.5,0.6,0.5,0.9
		C667.6,823.6,667.5,823.9,667.1,824.2z"/>
	<path class="st7" d="M674.9,870.5c-0.1,0.5-0.2,1.2-0.4,2.1c-0.2,0.9-0.3,1.6-0.5,2.2h1.1c0.3-0.6,0.6-1.3,0.9-2.1
		c0.3-0.7,0.5-1.4,0.6-2l-0.1-0.2H674.9z"/>
	<path class="st7" d="M676.8,840.1c-0.5,0.3-0.9,0.8-1.2,1.4h-0.1l-0.2-1.7h-1.2v9.2h1.4V844c0-0.9,0.3-1.7,0.8-2.3
		c0.5-0.6,1.2-0.9,1.9-0.9c0.3,0,0.6,0,1,0.1l0.2-1.3c-0.3-0.1-0.7-0.1-1.1-0.1C677.8,839.6,677.3,839.8,676.8,840.1z"/>
	<path class="st7" d="M679.3,824.5c-0.2,0-0.5,0.1-0.7,0.1c-0.5,0-0.8-0.2-1.1-0.4c-0.3-0.3-0.4-0.7-0.4-1.3v-5.4h2.7v-1.1h-2.7
		l0-2.1h-0.8l-0.6,2l-1.3,0.6v0.7h1.3l0,5.5c0,1.9,0.9,2.8,2.7,2.8c0.2,0,0.5,0,0.8-0.1c0.3,0,0.5-0.1,0.7-0.2l0-1.1
		C679.7,824.4,679.6,824.4,679.3,824.5z"/>
	<path class="st7" d="M672,812.9c-0.2,0-0.4,0.1-0.6,0.2c-0.2,0.2-0.2,0.4-0.2,0.7c0,0.3,0.1,0.5,0.2,0.7c0.2,0.2,0.4,0.2,0.6,0.2
		c0.2,0,0.4-0.1,0.6-0.2c0.2-0.2,0.2-0.4,0.2-0.7c0-0.3-0.1-0.5-0.2-0.7C672.4,812.9,672.2,812.9,672,812.9z"/>
	<path class="st7" d="M658.3,839.6c-0.6,0-1.2,0.1-1.6,0.3c-0.5,0.2-0.9,0.6-1.3,1.1h-0.1l-0.2-1.3H654v13.4h1.4v-3.8
		c0-0.5,0-1-0.1-1.5h0.1c0.3,0.5,0.8,0.8,1.3,1c0.5,0.2,1,0.3,1.6,0.3c1.2,0,2.1-0.4,2.8-1.3c0.7-0.8,1-2,1-3.5c0-1.5-0.3-2.7-1-3.5
		C660.4,840,659.5,839.6,658.3,839.6z M660,847c-0.5,0.6-1.1,1-1.9,1c-1,0-1.6-0.3-2.1-0.8c-0.4-0.6-0.6-1.5-0.6-2.8v-0.3
		c0-1.1,0.2-2,0.6-2.5c0.4-0.5,1.1-0.8,2-0.8c0.8,0,1.5,0.3,1.9,0.9c0.4,0.6,0.7,1.5,0.7,2.6C660.6,845.5,660.4,846.4,660,847z"/>
	<rect x="660" y="863.2" class="st7" width="1.4" height="9.2"/>
	<path class="st7" d="M648.3,844c0-0.9,0.3-1.7,0.8-2.3c0.5-0.6,1.2-0.9,1.9-0.9c0.3,0,0.6,0,1,0.1l0.2-1.3
		c-0.3-0.1-0.7-0.1-1.1-0.1c-0.6,0-1.1,0.2-1.6,0.5c-0.5,0.3-0.9,0.8-1.2,1.4h-0.1l-0.2-1.7h-1.2v9.2h1.4V844z"/>
	<rect x="645.1" y="863.2" class="st7" width="1.4" height="9.2"/>
	<path class="st7" d="M645.8,859.8c-0.2,0-0.4,0.1-0.6,0.2c-0.2,0.2-0.2,0.4-0.2,0.7c0,0.3,0.1,0.5,0.2,0.7c0.2,0.2,0.4,0.2,0.6,0.2
		c0.2,0,0.4-0.1,0.6-0.2c0.2-0.2,0.2-0.4,0.2-0.7c0-0.3-0.1-0.5-0.2-0.7C646.2,859.9,646,859.8,645.8,859.8z"/>
	<path class="st7" d="M640.3,839.6c-1.3,0-2.4,0.4-3.1,1.3c-0.8,0.8-1.1,2-1.1,3.5c0,1,0.2,1.8,0.5,2.5c0.4,0.7,0.8,1.3,1.5,1.7
		c0.6,0.4,1.4,0.6,2.2,0.6c1.3,0,2.4-0.4,3.1-1.3c0.8-0.8,1.1-2,1.1-3.5c0-1.5-0.4-2.6-1.1-3.5C642.6,840,641.5,839.6,640.3,839.6z
		 M642.3,847.1c-0.5,0.6-1.2,0.9-2.1,0.9c-0.9,0-1.6-0.3-2.1-0.9c-0.5-0.6-0.7-1.5-0.7-2.7c0-1.2,0.2-2.1,0.7-2.7
		c0.5-0.6,1.2-0.9,2.1-0.9c0.9,0,1.6,0.3,2.1,0.9c0.5,0.6,0.7,1.5,0.7,2.7C643,845.5,642.8,846.4,642.3,847.1z"/>
	<path class="st7" d="M687.2,863.1c-1.2,0-2.2,0.4-3,1.3c-0.7,0.9-1.1,2.1-1.1,3.5c0,1.5,0.4,2.6,1.2,3.5c0.8,0.8,1.9,1.2,3.2,1.2
		c0.6,0,1.2,0,1.6-0.1c0.4-0.1,0.9-0.2,1.4-0.5v-1.2c-1,0.4-2,0.6-2.9,0.6c-0.9,0-1.7-0.3-2.2-0.8c-0.5-0.6-0.8-1.4-0.8-2.5h6.4
		v-0.9c0-1.2-0.3-2.2-1-3C689.3,863.4,688.4,863.1,687.2,863.1z M684.6,867c0.1-0.9,0.3-1.5,0.8-2c0.4-0.5,1-0.7,1.8-0.7
		c0.7,0,1.3,0.2,1.7,0.7c0.4,0.5,0.6,1.1,0.6,2H684.6z"/>
	<path class="st7" d="M660.7,859.8c-0.2,0-0.4,0.1-0.6,0.2c-0.2,0.2-0.2,0.4-0.2,0.7c0,0.3,0.1,0.5,0.2,0.7c0.2,0.2,0.4,0.2,0.6,0.2
		c0.2,0,0.4-0.1,0.6-0.2c0.2-0.2,0.2-0.4,0.2-0.7c0-0.3-0.1-0.5-0.2-0.7C661.1,859.9,660.9,859.8,660.7,859.8z"/>
	<path class="st7" d="M652.4,871.5c-0.5,0-0.8-0.2-1.1-0.4c-0.3-0.3-0.4-0.7-0.4-1.3v-5.4h2.7v-1.1H651v-2.1h-0.8l-0.6,2l-1.3,0.6
		v0.7h1.3v5.5c0,1.9,0.9,2.8,2.7,2.8c0.2,0,0.5,0,0.8-0.1c0.3,0,0.5-0.1,0.7-0.2v-1.1c-0.1,0-0.3,0.1-0.5,0.1
		C652.9,871.5,652.7,871.5,652.4,871.5z"/>
	<path class="st7" d="M656.6,817.5l0.2-1.3c-0.3-0.1-0.7-0.1-1.1-0.1c-0.6,0-1.1,0.2-1.6,0.5c-0.5,0.3-0.9,0.8-1.2,1.4h-0.1
		l-0.2-1.7h-1.2v9.2h1.4v-4.9c0-0.9,0.3-1.7,0.8-2.3c0.5-0.6,1.2-0.9,1.9-0.9C655.9,817.4,656.3,817.4,656.6,817.5z"/>
	<path class="st7" d="M671.2,863.9c-0.6-0.5-1.4-0.8-2.5-0.8c-0.6,0-1.2,0.1-1.7,0.4c-0.5,0.3-0.9,0.6-1.2,1.1h-0.1l-0.2-1.3h-1.1
		v9.2h1.4v-4.8c0-1.2,0.2-2.1,0.7-2.6c0.4-0.5,1.2-0.8,2.1-0.8c0.7,0,1.3,0.2,1.6,0.6c0.3,0.4,0.5,0.9,0.5,1.7v6h1.4l0-6
		C672.1,865.3,671.8,864.4,671.2,863.9z"/>
	<rect x="750.4" y="835.9" class="st7" width="1.4" height="13.1"/>
	<path class="st7" d="M689.2,839.6c-1.2,0-2.2,0.4-2.9,1.3c-0.7,0.9-1.1,2.1-1.1,3.5c0,1.5,0.4,2.6,1.2,3.5c0.8,0.8,1.9,1.2,3.2,1.2
		c0.6,0,1.2,0,1.6-0.1c0.4-0.1,0.9-0.2,1.4-0.5v-1.2c-1,0.4-2,0.6-2.9,0.6c-0.9,0-1.7-0.3-2.2-0.8c-0.5-0.6-0.8-1.4-0.8-2.5h6.4
		v-0.9c0-1.2-0.3-2.2-1-3C691.3,840,690.4,839.6,689.2,839.6z M686.7,843.5c0.1-0.9,0.3-1.5,0.8-2c0.4-0.5,1-0.7,1.8-0.7
		c0.7,0,1.3,0.2,1.7,0.7c0.4,0.5,0.6,1.1,0.6,2H686.7z"/>
	<path class="st7" d="M756,868.1c0,1.2-0.2,2.1-0.7,2.6c-0.4,0.5-1.2,0.8-2.1,0.8c-0.7,0-1.3-0.2-1.6-0.6c-0.3-0.4-0.5-0.9-0.5-1.7
		v-6h-1.4v6c0,1.2,0.3,2,0.8,2.6c0.6,0.5,1.4,0.8,2.5,0.8c0.7,0,1.2-0.1,1.7-0.4c0.5-0.2,0.9-0.6,1.2-1h0.1l0.2,1.2h1.2v-9.2H756
		V868.1z"/>
	<path class="st7" d="M746.6,871.5c-0.5,0-0.8-0.2-1.1-0.4c-0.3-0.3-0.4-0.7-0.4-1.3v-5.4h2.7v-1.1h-2.7v-2.1h-0.8l-0.6,2l-1.3,0.6
		l0,0.7h1.3v5.5c0,1.9,0.9,2.8,2.7,2.8c0.2,0,0.5,0,0.8-0.1c0.3,0,0.5-0.1,0.7-0.2v-1.1c-0.1,0-0.3,0.1-0.5,0.1
		C747.1,871.5,746.9,871.5,746.6,871.5z"/>
	<path class="st7" d="M752.4,820.9c0-1.5-0.4-2.6-1.1-3.5c-0.8-0.9-1.8-1.3-3.1-1.3c-1.3,0-2.4,0.4-3.1,1.3c-0.8,0.8-1.1,2-1.1,3.5
		c0,1,0.2,1.8,0.5,2.5c0.3,0.7,0.8,1.3,1.5,1.7c0.6,0.4,1.4,0.6,2.2,0.6c1.3,0,2.4-0.4,3.1-1.3C752.1,823.6,752.4,822.4,752.4,820.9
		z M750.3,823.6c-0.5,0.6-1.2,0.9-2.1,0.9c-0.9,0-1.6-0.3-2.1-0.9c-0.5-0.6-0.7-1.5-0.7-2.7c0-1.2,0.2-2.1,0.7-2.7
		c0.5-0.6,1.2-0.9,2.1-0.9c0.9,0,1.6,0.3,2.1,0.9c0.5,0.6,0.7,1.5,0.7,2.7C751,822.1,750.8,823,750.3,823.6z"/>
	<path class="st7" d="M770.3,863.1c-0.7,0-1.3,0.1-1.8,0.4c-0.5,0.3-0.9,0.7-1.2,1.2h-0.1c-0.4-1-1.4-1.6-2.8-1.6
		c-0.6,0-1.1,0.1-1.6,0.4c-0.5,0.3-0.9,0.6-1.1,1h-0.1l-0.2-1.3h-1.1v9.2h1.4l0-4.8c0-1.2,0.2-2.1,0.6-2.6c0.4-0.5,1-0.8,1.9-0.8
		c0.7,0,1.2,0.2,1.5,0.5c0.3,0.4,0.5,0.9,0.5,1.7v6h1.4v-5.2c0-1,0.2-1.8,0.6-2.3c0.4-0.5,1.1-0.7,1.9-0.7c0.7,0,1.2,0.2,1.5,0.5
		c0.3,0.4,0.5,0.9,0.5,1.7v6h1.4v-6c0-1.2-0.3-2-0.8-2.6C772.2,863.3,771.4,863.1,770.3,863.1z"/>
	<path class="st7" d="M780.6,823.8c-1,0.4-2,0.6-2.9,0.6c-0.9,0-1.7-0.3-2.2-0.8c-0.5-0.6-0.8-1.4-0.8-2.5h6.4v-0.9
		c0-1.2-0.3-2.2-1-3c-0.7-0.8-1.6-1.1-2.7-1.1c-1.2,0-2.2,0.4-3,1.3c-0.7,0.9-1.1,2.1-1.1,3.5c0,1.5,0.4,2.6,1.2,3.5
		c0.8,0.8,1.9,1.2,3.2,1.2c0.6,0,1.2,0,1.6-0.1c0.4-0.1,0.9-0.2,1.4-0.5V823.8z M775.4,818c0.4-0.5,1-0.7,1.8-0.7
		c0.7,0,1.3,0.2,1.7,0.7c0.4,0.5,0.6,1.1,0.6,2h-4.8C774.7,819.2,775,818.5,775.4,818z"/>
	<path class="st7" d="M776.3,843.7c-0.8-0.3-1.3-0.5-1.6-0.7c-0.3-0.2-0.5-0.3-0.6-0.5c-0.1-0.2-0.2-0.4-0.2-0.6
		c0-0.4,0.2-0.7,0.5-0.9c0.3-0.2,0.8-0.3,1.5-0.3c0.8,0,1.6,0.2,2.5,0.6l0.5-1.1c-0.9-0.4-1.9-0.6-2.9-0.6c-1.1,0-1.9,0.2-2.5,0.7
		c-0.6,0.4-0.9,1-0.9,1.8c0,0.4,0.1,0.8,0.3,1.1c0.2,0.3,0.4,0.6,0.8,0.8c0.4,0.2,1,0.5,1.8,0.8c0.9,0.3,1.5,0.7,1.8,0.9
		c0.3,0.3,0.5,0.6,0.5,0.9c0,0.5-0.2,0.8-0.6,1.1c-0.4,0.2-1,0.3-1.7,0.3c-0.5,0-1-0.1-1.5-0.2c-0.5-0.1-1-0.3-1.4-0.5v1.3
		c0.7,0.4,1.6,0.6,2.9,0.6c1.2,0,2.1-0.2,2.7-0.7c0.6-0.5,1-1.1,1-2c0-0.6-0.2-1.1-0.6-1.5C778.2,844.5,777.4,844.1,776.3,843.7z"/>
	<path class="st7" d="M763.1,848.8c0.5-0.2,0.9-0.6,1.4-1.2h0.1l0.3,1.3h1v-6.3c0-1.1-0.3-1.9-0.8-2.3c-0.5-0.5-1.3-0.7-2.4-0.7
		c-0.5,0-1.1,0.1-1.6,0.2c-0.5,0.1-1,0.3-1.5,0.6l0.4,1.1c1-0.5,1.8-0.7,2.6-0.7c0.7,0,1.2,0.2,1.5,0.5c0.3,0.3,0.5,0.9,0.5,1.6v0.6
		l-1.6,0.1c-3,0.1-4.5,1.1-4.5,2.9c0,0.9,0.3,1.5,0.8,2c0.5,0.5,1.2,0.7,2.2,0.7C762,849.2,762.6,849.1,763.1,848.8z M759.9,846.5
		c0-0.6,0.2-1.1,0.7-1.4c0.5-0.3,1.3-0.5,2.4-0.5l1.4-0.1v0.8c0,0.9-0.2,1.5-0.7,2c-0.5,0.5-1.2,0.7-2.1,0.7c-0.5,0-1-0.1-1.3-0.4
		C760,847.3,759.9,847,759.9,846.5z"/>
	<path class="st7" d="M701.2,863.1c-1.2,0-2.2,0.4-3,1.3c-0.7,0.9-1.1,2.1-1.1,3.5c0,1.5,0.4,2.6,1.2,3.5c0.8,0.8,1.9,1.2,3.2,1.2
		c0.6,0,1.2,0,1.6-0.1c0.4-0.1,0.9-0.2,1.4-0.5v-1.2c-1,0.4-2,0.6-2.9,0.6c-0.9,0-1.7-0.3-2.2-0.8c-0.5-0.6-0.8-1.4-0.8-2.5h6.4
		v-0.9c0-1.2-0.3-2.2-1-3C703.3,863.4,702.4,863.1,701.2,863.1z M698.7,867c0.1-0.9,0.3-1.5,0.8-2c0.4-0.5,1-0.7,1.8-0.7
		c0.7,0,1.3,0.2,1.7,0.7c0.4,0.5,0.6,1.1,0.6,2H698.7z"/>
	<path class="st7" d="M699.5,840.9c0.3,0,0.6,0,1,0.1l0.2-1.3c-0.3-0.1-0.7-0.1-1.1-0.1c-0.6,0-1.1,0.2-1.6,0.5
		c-0.5,0.3-0.9,0.8-1.2,1.4h-0.1l-0.2-1.7h-1.2v9.2h1.4V844c0-0.9,0.3-1.7,0.8-2.3C698.1,841.2,698.7,840.9,699.5,840.9z"/>
	<path class="st7" d="M707.5,847.7l0.3,1.3h1v-6.3c0-1.1-0.3-1.9-0.8-2.3c-0.5-0.5-1.3-0.7-2.4-0.7c-0.5,0-1.1,0.1-1.6,0.2
		c-0.5,0.1-1,0.3-1.5,0.6l0.4,1.1c1-0.5,1.8-0.7,2.6-0.7c0.7,0,1.2,0.2,1.5,0.5c0.3,0.3,0.5,0.9,0.5,1.6v0.6l-1.6,0.1
		c-3,0.1-4.5,1.1-4.5,2.9c0,0.9,0.3,1.5,0.8,2c0.5,0.5,1.2,0.7,2.2,0.7c0.7,0,1.3-0.1,1.7-0.3C706.5,848.6,706.9,848.2,707.5,847.7
		L707.5,847.7z M707.4,845.3c0,0.9-0.3,1.5-0.7,2c-0.5,0.5-1.2,0.7-2,0.7c-0.5,0-1-0.1-1.3-0.4c-0.3-0.3-0.5-0.6-0.5-1.2
		c0-0.6,0.2-1.1,0.7-1.4c0.5-0.3,1.3-0.5,2.4-0.5l1.4-0.1V845.3z"/>
	<path class="st7" d="M737.4,863.1c-0.6,0-1.2,0.1-1.7,0.4c-0.5,0.2-0.9,0.6-1.2,1.1h-0.1l-0.2-1.3h-1.1v9.2h1.4v-4.8
		c0-1.2,0.2-2.1,0.7-2.6c0.4-0.5,1.2-0.8,2.1-0.8c0.7,0,1.3,0.2,1.6,0.6c0.3,0.4,0.5,0.9,0.5,1.7v6h1.4v-6c0-1.2-0.3-2-0.8-2.6
		C739.4,863.3,738.5,863.1,737.4,863.1z"/>
	<rect x="693.3" y="859.4" class="st7" width="1.4" height="13.1"/>
	<path class="st7" d="M717.4,863.1c-0.7,0-1.3,0.1-1.8,0.4c-0.5,0.3-0.9,0.7-1.2,1.2h-0.1c-0.4-1-1.4-1.6-2.8-1.6
		c-0.6,0-1.1,0.1-1.6,0.4c-0.5,0.3-0.9,0.6-1.1,1h-0.1l-0.2-1.3h-1.1v9.2h1.4v-4.8c0-1.2,0.2-2.1,0.6-2.6c0.4-0.5,1-0.8,1.9-0.8
		c0.7,0,1.2,0.2,1.5,0.5c0.3,0.4,0.5,0.9,0.5,1.7v6h1.4l0-5.2c0-1,0.2-1.8,0.6-2.3c0.4-0.5,1.1-0.7,1.9-0.7c0.7,0,1.2,0.2,1.5,0.5
		c0.3,0.4,0.5,0.9,0.5,1.7v6l1.4,0v-6c0-1.2-0.3-2-0.8-2.6C719.2,863.3,718.4,863.1,717.4,863.1z"/>
	<path class="st7" d="M726.9,863.1c-1.2,0-2.2,0.4-2.9,1.3c-0.7,0.9-1.1,2.1-1.1,3.5c0,1.5,0.4,2.6,1.2,3.5c0.8,0.8,1.9,1.2,3.2,1.2
		c0.6,0,1.2,0,1.6-0.1c0.4-0.1,0.9-0.2,1.4-0.5v-1.2c-1,0.4-2,0.6-2.9,0.6c-0.9,0-1.7-0.3-2.2-0.8c-0.5-0.6-0.8-1.4-0.8-2.5h6.4
		v-0.9c0-1.2-0.3-2.2-1-3C729,863.4,728.1,863.1,726.9,863.1z M724.4,867c0.1-0.9,0.3-1.5,0.8-2c0.4-0.5,1-0.7,1.8-0.7
		c0.7,0,1.3,0.2,1.7,0.7c0.4,0.5,0.6,1.1,0.6,2H724.4z"/>
	<path class="st7" d="M725.1,825.6c0.3,0,0.5-0.1,0.7-0.2v-1.1c-0.1,0-0.3,0.1-0.5,0.1c-0.2,0-0.5,0.1-0.7,0.1
		c-0.5,0-0.8-0.2-1.1-0.4c-0.3-0.3-0.4-0.7-0.4-1.3v-5.4h2.7v-1.1H723v-2.1h-0.8l-0.6,2l-1.3,0.6v0.7h1.3v5.5c0,1.9,0.9,2.8,2.7,2.8
		C724.5,825.7,724.8,825.7,725.1,825.6z"/>
	<path class="st8" d="M1007.3,277.4c-68.3,0-124.2,55.9-124.2,124.2v230h248.5v-230C1131.6,333.3,1075.7,277.4,1007.3,277.4z"/>
	<polygon class="st9" points="961.3,386.8 970.9,413.9 936,467.7 998.9,418.4 992.7,388.7 1029.1,304.2 	"/>
	<polygon class="st9" points="1064.6,465.4 984.9,481.1 1081.8,490.8 1103.7,460.4 1197.4,433 1077.5,437.3 	"/>
	<polygon class="st9" points="837.1,291.3 853.4,397 880,407.8 896.8,469.7 902,390 875.7,374.8 	"/>
	<path class="st10" d="M784.6,568.1l-1.8,44.7l178.5,39.4c27.6-38.6,73.4-96.9,103.6-106.9l0.5-24.5l-138.5-34.3
		C893.4,496.5,826.9,526.8,784.6,568.1z"/>
	<path class="st11" d="M990.7,520.5l5.5-1.3c-13.7,11.4-23.7,26.1-32.9,41.4c24.2-20.3,48.8-39.3,77.8-45.8l-38.5-9.5
		C997.9,509.8,993.9,514.8,990.7,520.5z"/>
	<path class="st12" d="M963.1,607.5l-1.8,44.7c27.6-38.6,73.4-96.9,103.6-106.9l0.5-24.5C1025.5,541.4,990.9,566.2,963.1,607.5z"/>
	<polygon class="st13" points="782.9,612.7 961.3,652.1 963.1,607.5 784.6,568.1 	"/>
	<path class="st14" d="M962.5,622.8l-0.7,18.2c16.9-29.3,35-56.4,56.1-77.4C997.8,578.5,978.8,596.6,962.5,622.8z"/>
	<polygon class="st15" points="783.4,599.9 925.3,617.3 784.3,576.3 	"/>
	<polygon class="st16" points="961.5,648.7 962,636.1 829.9,610.9 	"/>
	<path class="st17" d="M894.2,557.4c9.7-15.1-27.5-28.5-67,20l72.8,16.1C918.3,564,960.9,494.9,894.2,557.4z"/>
	<path class="st18" d="M875.5,502.2c-3.4,2.4-6.3,7.3-6.5,10.8c-0.1,1.9,0.6,3.1,1.9,3.3l133.3,32.1l9.8-15L880,501.1
		C878.9,500.6,877.3,500.9,875.5,502.2z"/>
	<path class="st17" d="M915.3,596.9l12.4,2.7l28.6-45C956.4,554.6,919.7,590.2,915.3,596.9z"/>
	<path class="st18" d="M986.1,561.3c-7.1,6.5-13.9,12.9-20.4,19.3c-3.3,2.8-6,4.5-8.8,5.3c-2.8,0.8-6,0.7-10.3-0.2l-125-24.6
		c-1.6-0.3-2.9-0.6-4.1-0.8l-7.9-1.5c-0.8-0.2-1.6-0.3-2.4-0.5c-0.2,0.5-0.2,0.9-0.3,1.4c1.7,2.4,5.7,3.5,12.3,4.8l125,24.6
		c5.4,1.1,9.4,1.1,13.3,0c3.9-1.1,7.3-3.2,11.4-6.6l0.2-0.2c6.5-6.4,13.3-12.8,20.3-19.2c6.7-6.1,13.7-12.3,21-18.5l-2.3-2.7
		C1000.5,548.3,993.2,554.9,986.1,561.3z"/>
	<path class="st19" d="M875.5,502.2c-2.1,1.5-4.1,4-5.3,6.5l138.1,33.2l5.6-8.5L880,501.1C878.9,500.6,877.3,500.9,875.5,502.2z"/>
	<path class="st18" d="M1009.6,534.6c-3.4,2.4-6.3,7.3-6.5,10.8c-0.2,3.5,2.4,4.5,5.8,2c3.4-2.4,6.3-7.2,6.5-10.8
		C1015.6,533.1,1013,532.2,1009.6,534.6z"/>
	<path class="st20" d="M917.4,546.4c-15.8,0-34.1,4.4-41,6.8c-64.8,22.8-67.3,99.3-98.5,149.2c-27,43.3-46.2,52.6-98,48.4
		c-22.8-1.9-43-8.9-59.6-25c-28.6-27.9-29.7-70.8-25.1-108.9c4.1-34-48.7-52.5-48.7,19.7c0,38.8,10.5,89.7,38.4,118.8
		c65.3,68.1,176.3,48.7,218.7-56.7c37.9-94,36.9-135.3,114.1-136.4C964.9,561.5,939.2,546.4,917.4,546.4z"/>
	<path class="st21" d="M592.1,735.2c-27.9-29.1-38.4-80-38.4-118.8c0-7.1,0.5-13.3,1.4-18.7c-5.1,7.9-8.6,20.4-8.6,38.9
		c0,38.8,10.5,89.7,38.4,118.8c65.3,68.1,176.3,48.7,218.7-56.7c2.9-7.1,5.5-14,8-20.5l-0.9,0.3
		C768.4,783.9,657.4,803.3,592.1,735.2z"/>
	<path class="st22" d="M432,543.4c-26.3,33.7-24.7,91,31.8,111c11.8,4.2,44.7,3.3,57.2-1.3c8.8-3.3,7.4-3.7,10.6-13.5
		C543.2,604.6,481.2,480.5,432,543.4z"/>
	<path class="st20" d="M481.6,334.5c3.5,8,15.2,6.8-4.2,6.4c-9.4-0.2-18.4,14.4,5.2,12.9c7.5-0.5,4.2-1.6,0.1,2.2
		c-4.9,4.7-6.7,4.8-6.7,12.5c0,9.6,36.6-6.6,40.4-11C533.9,336.9,475.4,320.6,481.6,334.5z"/>
	<path class="st20" d="M847.9,419.4c-5-1.7-38.7-9.9-32.5,2.5c3.1,6.3,18.5,34.5,23.8,30.1c2.5-2.1,2.2-9.2,1.1-11.9
		c1.5,2.5,11.7,15.8,15,7.8c1.9-4.5-2.4-12.2-2.4-12.3c-0.2-0.1,5,0.8,6.5-0.9C863.1,430.2,856.7,422.4,847.9,419.4z"/>
	<path class="st22" d="M509.2,341.3c0.2,5.2,10,4.8-3.2,5.5c-12.4,0.7,1.6,5.9,4.9,6.8c0,0.4-18.5,9.3-3.3,8.5
		c21.1-1.1,41.7,16.7,57.6,29.7c42.8,35,66.7-6.3,46.7-26.4C590.2,343.7,508.8,332.3,509.2,341.3z"/>
	<path class="st22" d="M744.9,382.9c-1.8-0.7-96.7-14.3-109.5-18.9c-52.5-19-134.6,77.4-154.2,168.1c-10.1,46.4-2.3,93.5,31,118.2
		c10.1,7.5,27.8,15,41.5,19.5c14.4,4.7,13,5.8,29,7.4c71,7.4,127-41.7,127-116.1c0-71.1,20.2-118.8,100.2-129.1
		c3.8-0.5,19.2-4.1,15.6-9.4c-3.4-4.9,9.5,1.2,4.3-7C822.3,403.8,790,400.8,744.9,382.9z"/>
	<path class="st23" d="M664.5,656.5c27.7-20.4,45.1-54,45.1-95.5c0-61,14.9-104.9,69.8-122.6h0C659,438.4,665.5,598.8,664.5,656.5z"
		/>
	<path class="st20" d="M464.7,641.6c-11.9-7.1-13.6-12.2-19.3-24.1c-4.9-10.1-7.2-37.6-16.9-50.1c-11.2-14.3-16.6-12.5-17,1.8
		c-2.1-3.1-2.5-4.5-3.5-7c-12-31.1-37.9-2.2-30.1,10.1c-1.8-1.9-3.8-3.3-7.2-4.2c-5.6-1.4-8.7,12.2-7.5,18.1
		c4.5,21.3,19.6,32.2,39.1,44c9.7,5.9,51.7,25.8,61.8,23.2C471.7,651.4,471,645.4,464.7,641.6z"/>
	<path class="st24" d="M581.2,400.2C545.6,422.3,479,552,544.3,572.7c67.2,21.3,109.4-36,124.6-112.6
		C683.2,388.2,619.2,376.6,581.2,400.2z"/>
	<path class="st22" d="M690,539.2c-78.3,40.1-154.1,165.9,8.5,145.9c28.7-3.5,31.4-8,45-34.4C759.3,620.2,737.3,515,690,539.2z"/>
	<path class="st20" d="M747.1,587c3.4-6.6,5.7-22.4,5.4-36.1c-0.8-31.5-20.6-36.5-31.9-5.4c-3.8,10.6-4.2,25.7-2.6,37.2
		c0,0.3-6.6-21.8-12.9-23.1c-14.1-2.9-9.1,36.6-2.7,72c5.8,31.9,11.9,60.4,20.9,53.9C764.1,656.4,792.4,530.3,747.1,587z"/>
	<path class="st21" d="M396.8,586.9c-6.6-0.3-9.1,6.1-10.1,10.9c-3.7,16.5,49.1,42,50.6,37.2c0.8-2.6-14.8-24.1-17.8-28.6
		C414.6,599.3,407.1,587.4,396.8,586.9z"/>
	<path class="st21" d="M726.5,598.6c-17.3,13.2-5.2,64.8-1.2,63.8c16.5-3.9,21.4-38.6,18.9-54.2
		C742.8,599.2,735.5,591.8,726.5,598.6z"/>
	<path class="st25" d="M635.5,363.9c-8.2-3-17-3.1-26.3-1c-7.7-6.2-20.1-11.4-33.6-15.5c1.4,8.7,3.6,18.1,7,27.3
		c-0.6,0.3,27.6,99.7,149.7,21.5c6.9-4.4,12.4-8.4,16.5-11.9c-1.3-0.5-2.6-1-3.9-1.5C743.1,382.1,648.2,368.6,635.5,363.9z"/>
	<path class="st26" d="M592.2,394.7c14.1,22.5,38,38.6,76.9,30.1C660.4,389.5,622.1,382.6,592.2,394.7z"/>
	<path class="st22" d="M762.1,245.8c-39.6-31.1-45.3,86.2-7.1,122.8c6.8,6.5,27.8,14.1,36.9,15.3c29.1,3.9,49.2-15,58.5-41
		C869.8,288.4,794.6,271.4,762.1,245.8z"/>
	<path class="st20" d="M770.6,272.7c-28.9-22.6-33,62.7-5.2,89.4c5,4.8,20.3,10.3,26.8,11.1c21.2,2.8,35.8-10.9,42.6-29.8
		C849,303.7,794.3,291.3,770.6,272.7z"/>
	<path class="st21" d="M770.6,272.7c-7.5-5.9-13.3-4.5-17.4,1.3c1.4,0.6,2.9,1.5,4.4,2.7c23.7,18.6,78.4,31,64.2,70.7
		c-4,11.3-10.9,20.8-20.4,26c16.2-1.7,27.6-14,33.3-30C849,303.7,794.3,291.3,770.6,272.7z"/>
	<path class="st22" d="M722.5,194.5c-17.9-28.1-8.1,13.2-7,17.2c-27.7-17.5-68.7-17.8-18.8,3.2c-16.1,0.6-28.8,14.1-36.4,31.1
		c-1.8,4-4.6,9.8-9.3,9.8c-31.8,0-65-14.7-84.9-14.7c-30,0-13.6,157.7,146.2,157.7c21.4,0,48.5-9.9,59-29.6
		c7.8-14.7,12.4-29.5,14.1-43.7c0.4,1,0.7,1.9,1,2.9c3.2,10.2,8.1-1.5,7.7-7.8c-0.6-10.1-2.7-20.8-8.7-28.7
		c-4.6-6.1,3.1,0.9,3.4,1.1c14,15.7,11.1,0.9-0.8-17.7C767.3,242.8,753.4,243.1,722.5,194.5z"/>
	<path class="st20" d="M525,220c-4.9,39.9,46.9,48.8,45.8,35.5C569.7,242.1,529.2,185.5,525,220z"/>
	<path class="st27" d="M612.6,322.9c-4.4,0.3,3.2,62.1,3.2,72.5c14.6,0,31.6,4,46.9,4c0.6,0,25.3-54.4,20.8-62.6
		C681.1,332.3,619.6,322.3,612.6,322.9z"/>
	<path class="st28" d="M639.3,347.6c-10,0-19.3,3.8-26.5,10.1c1.3,16.1,3.1,32.7,3.1,37.6c14.6,0,31.6,4,46.9,4
		c0.3,0,7-14.4,12.8-29.5C668.1,356.6,654.7,347.6,639.3,347.6z"/>
	<path class="st7" d="M690.2,232.6c-12.6,1.3-24.2,15.5-26.9,28.5c-0.2,0.7,2.4,0.3,3.2,0.3c11.4,0,20.5,8.8,25.4,2.3
		C696.8,257.1,705.8,231.1,690.2,232.6z"/>
	<path class="st7" d="M697.2,272.8c8.4,4.7,20.3,14.7,23.5,8.2c5.8-11.7,8.6-27.9,3.2-40.2C716.6,224.6,698.3,264.4,697.2,272.8z"/>
	<path class="st29" d="M642.6,350.9l8.1,1.1l9.9-22c-4.1-0.8-8.5-1.7-12.9-2.4L642.6,350.9z"/>
	<path class="st29" d="M635.1,352.4l7,0.6l5.4-25.4c-4.7-0.8-9.3-1.6-13.7-2.3L635.1,352.4z"/>
	<circle class="st19" cx="679.7" cy="250.5" r="2.8"/>
	<ellipse class="st19" cx="713.1" cy="260.5" rx="2.9" ry="2.8"/>
	<path class="st19" d="M985.1,558.2c-7.1,6.5-13.9,12.9-20.4,19.3c-3.3,2.8-6,4.5-8.8,5.3c-2.8,0.8-6,0.7-10.3-0.2l-125-24.6
		c-5.1-1-7.9-1.6-8.1-1.9c0-0.1,1.6-1.4,5-4.6c8.8-8.2,18.4-15.6,28.7-22.4c10.4-6.8,21.5-13,33.3-18.7l-2.9-5.9
		c-12,5.8-23.4,12.1-34.1,19.1c-10.7,7-20.6,14.6-29.6,23.1c-5.8,5.4-8.1,8.8-6.5,12.2c1.4,3,5.5,4.2,12.8,5.6l125,24.6
		c5.4,1.1,9.4,1.1,13.3,0c3.9-1.1,7.3-3.2,11.4-6.6l0.2-0.2c6.5-6.4,13.3-12.8,20.3-19.2c7-6.4,14.3-12.9,22-19.4l-4.3-5
		C999.6,545.2,992.2,551.7,985.1,558.2z"/>
	<g>
		<path class="st30" d="M411.6,98.4c-21.9,6.2-111.5,39.1-131.2,49.3c-16.7,8.6-80.8,37.8-56.6,63.1
			c12.8,13.4,90.8,114.7,107.6,117.4c24.8,4.1,69.7-25.5,91.2-39.1c10.7-6.8,25.7-19.5,38.3-15.5c2,0.6,21.7,5.6,19.1,2.3
			c-16.6-21.3-6.3-16.1,12.5-33.6c2.3-2.2-15.1-93.9-18.3-106.1C463.8,97.6,473.3,80.9,411.6,98.4z"/>
		<g>
			<path class="st7" d="M343,193.2c-0.9-4.3-1.9-7.3-2.9-8.9c-0.3-0.5-0.8-1.2-1.5-2.2c-2.5-1.8-4.3-2.3-5.5-1.6
				c-0.2,0.1-1.1-0.3-2.7-1.1l-2.4,1.5c-2.2,1.4-4.3,3.7-6.2,7l-1.8,4.6c-1,5-1,10.2-0.1,15.5c0,0.1,0,0.3,0,0.4
				c-0.5-1.3-1-2.7-1.4-4.1c-3.8-10.4-5.8-16.7-5.9-18.8c0.1-1.7,0.1-2.6,0-2.8c0.1-1.1,0.3-2.3,0.5-3.5c1.1-4.2,1.3-6.7,0.8-7.6
				l-1.3-2.1c-0.1,0.1-0.5,0-1-0.3l-1.6,1c-0.5,1.1-0.9,2.6-1.2,4.6c-1,4.7-1.6,7.1-1.7,7.2c-0.7,3.8-1.6,7.2-2.5,10.2
				c-3.5,13.9-5.9,21.4-7.3,22.7c-1.5,0.1-3.2-0.4-5.1-1.6c-1.6-1.1-5.8-4.7-12.6-10.9c-1.4-1.5-2.4-2.1-2.9-1.8
				c-1.1-1.1-2.3-1.2-3.6-0.4l-1.3,0.8c-0.7,0.4-0.9,0.8-0.8,1.2l1.5,2.4c1.4,0.5,2.2,1,2.5,1.5c0.5-0.3,2.6,2.2,6.5,7.6
				c1.2,2,3,5.8,5.4,11.3c3.5,9,5.4,13.6,5.7,14.1l0.1,0.2c0.9,1.4,1.7,2.1,2.6,2.3l1.8-1.1c0.5-0.3,0.7-0.9,0.4-1.8
				c-2.9-8.1-5.5-14.8-7.9-20.1l-0.3-0.5l0.2-0.1c1.1,1.1,2.9,1.9,5.4,2.5c1.6,0.1,3-0.1,4.1-0.5l1.8-1.1c1.8-1.1,3.2-3.6,4.4-7.4
				c0,0,0.8-2.6,2.4-7.8c1.3-5.6,2.1-8.4,2.2-8.6c0.2,0.3,0.5,0.9,0.8,1.8c2.8,7.8,4.2,11.7,4.4,11.9c2,6.1,5.2,12.7,9.5,19.8
				l0.2,0.3c0.2,0.3,0.4,0.3,0.7,0.1l0.2,0.4c0.9,1.5,1.8,2.1,2.4,1.7l1.4-0.9c0.6-0.4,0.6-1.1,0-2.1l-1.5-2.4
				c-1.6-2.6-3.3-6-5-10.1l0.1,0.1c0.6,1,1.4,1.9,2.3,2.8c3,1.8,6,1.8,8.9,0.1l2.3-1.4c2.6-1.6,4.8-5.2,6.5-10.8
				c0.6-3.7,0.9-6.6,0.8-8.9C343.3,196.3,343.2,194.9,343,193.2z M337.3,203.7c-1.3,5.4-3,8.9-4.9,10.6c-1.1,0.5-1.7,0.7-1.8,0.6
				c-1.5,0.2-2.8-0.7-4-2.6c-1.8-4.7-2.4-9.9-1.7-15.5c1.2-5.8,2.7-9.3,4.5-10.3l0.3-0.2c0.8-0.5,1.7-0.8,2.6-0.9
				c1.7,0,2.9,0.5,3.4,1.4c0.7,2.3,1.2,4.1,1.4,5.6C338,194.3,338,198.1,337.3,203.7z"/>
			<path class="st7" d="M364.3,164.4l-1.1-1.8c-0.4-0.2-0.7-0.3-0.9-0.2l-2.9,1.8l-0.6,0.5c1.1,4.7,1.9,10.1,2.5,16.1
				c0.2,2.1,0.1,5.2-0.2,9.3c-0.6,4-1.4,6.5-2.3,7.7c-1,0.1-2.1-0.1-3.3-0.7c-1.2-0.5-2.7-1.9-4.6-4.2c-2.1-3.5-3.5-8.2-4.2-14.1
				c-0.3-2.6,0-4.7,1-6.6l-1.4-2.3c-0.4-0.2-0.7-0.3-0.9-0.2l-3.3,2l-0.6,1.3c-0.4,2.9-0.4,5.1-0.1,6.6c0.5,5.3,2.3,10.4,5.4,15.5
				c0.2,0.3,1.3,2,3.4,4.9c1.2,0.9,2.5,1.8,3.9,2.6c1.9,1,4.4,0.5,7.6-1.4c3.2-2,4.9-7,5-15.1c0.1-1.1-0.2-5.1-0.8-12.1
				C365.9,170.7,365.3,167.6,364.3,164.4z"/>
			<path class="st7" d="M415.8,136c-1-0.4-1.5-0.6-1.6-0.5l-0.9,0.6c-0.2,0.1-0.6,0.7-1.2,1.9c-0.2,1.1-0.4,2-0.6,2.6
				c-1.3,4.9-2,8.2-2.2,9.9c-1.2,6-1.9,9.5-2.2,10.4c-1.4,4.7-3.4,8.6-6.1,11.7c-0.2,0.1-0.3,0.1-0.4,0c-1.4,0.9-2.9,0.1-4.5-2.4
				c-0.2-0.3-0.2-0.4-0.1-0.5c-0.8-1.3-1-5.3-0.6-11.8l3.4-1.1l2.1-1.3c0.4-0.3,1.1-0.9,2.2-1.9c0.7-0.4,1.8-2,3.1-4.5
				c2.3-3.9,2.8-6.9,1.4-9.2l-0.7-1.1c-0.7-1.2-1.6-1.9-2.4-2.2c-1.9-0.8-4-0.5-6.4,1c-2.4,1.5-4.6,5.2-6.5,11
				c-0.9,4.9-1.3,8.4-1.3,10.6c-0.2,1.3-0.3,2.5-0.3,3.7c-1-0.6-2.1-1-3.4-1.4c-2.9-0.2-5.4,0.3-7.3,1.3l-0.1-0.1
				c1.6-2.3,3.1-4.8,4.6-7.4c2.6-4.2,3.7-6.6,3.2-7.4l-1.1-1.9c-0.7-0.4-1.3-0.3-2,0.1l-1.7,1c-2.1,4-3.8,7.2-5.2,9.7
				c-3.1,5.1-5.8,9.1-7.8,12.1c-1.3,1.2-1.9,1.9-1.8,2.1l1,1.6c0.9,1,1.6,1.4,1.9,1.2l2.1-1.3c2.8-2.3,4.5-3.6,5.1-4l1-0.6
				c1.4-0.9,3.1-1.5,5.2-1.8c2.6,0,4.4,0.5,5.2,1.7c0.8,1.3,1.1,3.1,0.8,5.4c-1.7,5.1-4.2,8.7-7.6,10.8c-2.2,1.3-4.4,1.8-6.6,1.3
				c-0.1-0.2-0.2-0.9-0.2-1.9c0.8-3.2,2.3-5.6,4.3-7.2c0.3-0.2,0.8-0.3,1.5-0.4c1.2,1.4,1.9,2.1,2.2,1.9l1.7-1
				c0.8-0.5,1-1.2,0.4-2.1l-1-1.6c-1.1-1.8-3.1-2.1-6-0.9l-1.4,0.8c-1.7,1-2.9,2-3.7,2.7c-2.5,3.3-3.5,5.7-3.3,7.1
				c-0.2,1.3,0,2.6,0.8,3.7l1.3,2.1c0.2,0.3,0.6,0.6,1.2,0.9c3,1.3,6.9,0.5,11.7-2.4c4.1-2.5,7.3-6.3,9.5-11.3
				c1.1,1,2.7,1.5,4.8,1.5c1.1-0.4,1.7-0.5,1.8-0.4c0.4-0.3,1.4-0.8,3.1-1.7c2.2-1.7,3.4-2.9,3.7-3.6c2.5-4.3,3.7-6.7,3.4-7.1
				c0.6-1.5,0.8-2.3,0.8-2.4c0.9-3.5,1.5-6.8,1.9-9.9c1.9-8.4,2.9-13.3,3-14.7L416,136C415.9,135.9,415.9,135.9,415.8,136z
				 M396.4,149.7c1.6-4.8,3.2-8,4.9-9.5c0.7-0.1,1.1,0,1.4,0.4c0.2,0.9,0.2,1.9,0.1,2.9c-1.6,4.5-3.6,7.7-5.9,9.6
				c-0.3,0.2-0.6,0.3-1.1,0.3C396.3,151.1,396.5,149.8,396.4,149.7z"/>
			<path class="st7" d="M429.7,227.6c4.1-0.2,6.9-1,8.5-2.5c3.8-3.5,6-8.8,6.5-15.6c0.1-2-0.3-4.3-1-7.1c-1.3-3.9-2.9-6.8-4.6-8.7
				l-1.1-1.1c-0.8-0.8-1.8-1.6-3.1-2.3c-5.1-2.1-9.8-1.2-14.1,2.7c-1.5,2-2.1,3-1.9,3.3c-1.2,2-1.8,6.2-1.9,12.6
				c-1.3-2.1-2.1-3.8-2.3-5.2l-1.2-1.3c-0.8-0.4-1.8-0.1-2.8,0.9l-0.5,0.4c-0.9,0.8-1.2,1.6-1,2.4c0.9,2,2.2,4.6,3.9,7.8
				c0.2,1.9,0.7,4.4,1.4,7.3c0.6,2,0.8,3.1,0.7,3.3c0.7,3,1.1,4.9,1.1,5.7c0,1.5,0.1,2.3,0.3,2.6c-0.1,1.8-0.1,2.8,0,2.9
				c-0.2,1-0.2,1.6,0.1,1.8l-0.2,0.2l-0.1-0.1c-0.6-0.6-1-1.4-1.2-2.4c-0.5-0.8-0.8-1.5-0.9-2.1c-0.2-0.2-1.5-3.4-4-9.6
				c-1-2.2-2.6-6.2-4.6-12.1c-0.1-0.9-0.6-1.8-1.3-2.8c-1-1-2-1-3.2,0.1l-0.2,0.2c-0.6,0.6-1,1.2-1.2,2c-0.1,0.1,0.4,1.5,1.5,4.3
				c0.1,0.1-0.3,0.5-1.1,1.2c-4,3.8-6.4,8.4-7,14l-0.5-0.5c-0.1-0.1-0.8,0.2-1.9,0.9l-1.5,1.4c-0.1,0.1-0.1,0.6,0,1.4
				c1.9,7.9,3.1,13.2,3.5,15.8c0.5,1.1,0.8,4,0.7,8.5l-0.1-0.1c-0.1-0.1-0.9-1.9-2.3-5.2c-2.7-7.5-4.5-13.3-5.3-17.3
				c0-2.1-0.5-3.8-1.6-4.9l-0.3-0.4c-0.8-0.9-2.1-0.6-3.6,0.9l-0.9,0.8c-0.5,0.5-0.6,0.9-0.3,1.3c0.4,3.7-0.1,6.9-1.4,9.6
				c-2,0.3-3.4,0-4.1-0.8c-0.6-1-1.4-2-2.4-3l-0.8-0.8c-0.5-0.5-1.1-0.5-1.7,0.2l-2,1.8c-1.1-1.8-2.2-3.5-3.3-5l-0.7-0.8
				c2.9-3.3,12.9-13.4,30-30.5c0.6-0.8,2-2.3,4.3-4.7c0.2-0.1,0.1-0.3-0.1-0.5l1.2-1.1c0.6-1.2,0.6-2.1,0.1-2.6l-0.2-0.2
				c-0.6-0.6-1.1-0.7-1.5-0.3c-0.5-0.3-0.9-0.5-1-0.4l-0.8,0.7c-0.1,0.1-0.4,0.3-1.1,0.6l-6.5,6c-0.5,0.5-0.9,1-1.4,1.7
				c-0.4,0.3-0.8,0.7-1.2,0.9c-25.3,24.9-42.8,42.4-52.5,52.6l-2,1.9l-0.7,0.8c-0.1-0.1-0.8,0.4-2.1,1.6l-0.8,0.7
				c-0.1,0.1-0.1,0.5,0.1,1.2l2.3,2.5c1.4,0.5,2.4,0.6,3,0.5l1.7-1.6c0.1-0.1,0.6-0.7,1.6-1.9l1.3-1.2c0.5-0.5,3.5-3.5,9-9.1
				c0.1-0.1,0.3-0.4,0.4-0.8c2.4-2.3,6.3-6.2,11.7-11.9c0.2-0.1,0.4-0.2,0.6-0.3l0.2,0.2c1.4,2,2.9,4.2,4.5,6.8
				c2.4,4.4,3.9,6.9,4.5,7.6c0.7,2,1.1,3.1,1.3,3.2l0.7,0.8l0.8,2c1.2,1.3,2.5,3.2,3.7,5.8c0.8,1.6,1.4,2.6,1.7,2.9
				c1.2,2.2,2.4,4.2,3.6,5.9l1.5,1.6c0.5,0,0.8,0.1,1,0.4c0.6,0.7,1.4,0.6,2.4-0.4l1-0.9c-0.2-0.8-0.2-1.3-0.2-1.3
				c-0.3-0.7-3.2-6.3-8.9-16.8c-2.8-5-4.2-7.5-4-7.7c-1.3-2.2-1.9-3.4-1.9-3.7l-0.3-0.6c1.4,1.4,2.5,2.4,3.5,2.8
				c2.2,0.8,4.4,0.5,6.6-0.6c1.3-1.4,2.2-2.2,2.5-2.6l0.2-0.2c3.2,10.4,6,16.9,8.3,19.4c1.2,1.1,1.8,1.7,1.9,1.6
				c1.6,0.2,2.8-0.1,3.5-0.8l1.6-1.5c1.4-1.3,1.9-4.3,1.7-9c1.7,1.3,3.4,1.8,5,1.6l2.3-0.9l1.9-1.8c0.9-0.8,1.3-1.3,1.1-1.5
				c1.6-1.5,2.3-5.2,2.3-11.1l0.1-0.1l0.1,0.1c0.1,0.1,0.6,0.8,1.4,2l0.1,0.1c1.4,1.5,3.1,1.7,5.3,0.7l1.7-1.6
				c1.6-1.5,2.1-5.1,1.4-10.7c2.1,4.2,3.7,7.6,4.6,10.4c1.3,4.6,3.6,9.1,6.7,13.7l1.2,1.3c0.1,0.1,0.3,0.1,0.8-0.1
				c0.4-0.4,1.1-0.8,2.2-1.2l1-1c0.4-0.9,0.3-1.8-0.5-2.6c-5.2-10.7-8.7-18.7-10.3-24.1l0.1-0.1L429.7,227.6z M406.8,242.5
				c-0.2,3.1-0.5,4.8-0.8,5.1c0.1,1.2-0.4,2.2-1.3,3.1c-1.5-0.3-2.4-0.6-2.7-0.8l-0.1-0.1c-0.9-1-1.8-3-2.7-6
				c-0.8-3.1-1.3-5.7-1.3-7.7c0.1-3.5,0.4-6.5,1-9c0.8-2.7,2-5.3,3.8-7.8l0.1-0.1l0.2,0.2c0,0.5,0.1,0.8,0.4,1.1
				c0.7,3,1.2,4.6,1.3,4.8c1.3,4.8,2,8.2,1.9,10.3C406.8,235.8,406.9,238.1,406.8,242.5z M427.5,221.2l-0.3-0.4
				c-1.7-1.8-2.6-4-2.8-6.5c-0.7-1.3-1.2-3.3-1.4-5.9c0.2-7.4,1.2-11.9,2.9-13.6c0.2-0.2,0.6-0.4,1.2-0.7c2.7-0.8,5.1-0.1,7,1.9
				c2.4,2.6,4,7.2,4.7,13.8c-0.5,4.7-1.7,8.5-3.4,11.2c-1.5,1.2-2.4,1.7-2.6,1.4C432,223.3,430.2,222.9,427.5,221.2z"/>
		</g>
	</g>
</g>
</svg>
