<?xml version="1.0" encoding="utf-8"?>
<!-- Generator: Adobe Illustrator 16.0.0, SVG Export Plug-In . SVG Version: 6.00 Build 0)  -->
<!DOCTYPE svg PUBLIC "-//W3C//DTD SVG 1.1//EN" "http://www.w3.org/Graphics/SVG/1.1/DTD/svg11.dtd">
<svg version="1.1" id="Layer_1" xmlns="http://www.w3.org/2000/svg" xmlns:xlink="http://www.w3.org/1999/xlink" x="0px" y="0px"
	 width="1400px" height="980px" viewBox="0 0 1400 980" enable-background="new 0 0 1400 980" xml:space="preserve">
<rect fill="#FFFFFF" width="1400" height="980"/>
<g>
	<g>
		<path fill="#7A3518" d="M585.687,257.07c0,0,28.902-8.724,45-2.988c0,0-25.609-1.083-42.525,7.698L585.687,257.07z"/>
		<path fill="#7A3518" d="M584.197,269.216c0,0,32.744,3.26,46.567,15.75c0,0-25.342-11.767-46.038-9.977L584.197,269.216z"/>
		<g>
			<path fill="#7A3518" d="M591.83,329.827h13.468c-8.561-6.096-29.902-17.257-38.038-21.449c0.302-1.471,0.585-3.811,0.585-7.458
				c0,0,29.367-12.127,22.896-45.136c0,0,0.241-8.292-11.409-15.088c0,0-13.592-20.874-27.668-30.582c0,0,8.252-12.621-9.225-31.552
				c0,0-5.339-6.796-9.223-12.622c0,0-16.504-14.077-22.087-18.447c0,0-24.999-24.755-18.688-40.046c0,0-24.999,8.252-22.572,27.184
				c0,0-44.417-25.322-91.018,2.508c0,0-72.489,9.062-89.317-43.365c0,0-6.796,7.442-7.767,18.446l-2.265-7.767
				c0,0-6.796,28.154,0.646,55.338l0.971,3.883l-4.206,2.266c0,0-44.21,34.132-55.986,43.689
				c-22.899,18.582-30.715,30.697-48.542,42.716c0,0,18.771-1.293,23.301-3.235c0,0-12.944,46.601-8.414,72.49
				c0,0,2.589,28.478,0,40.127c0,0,11.004-10.355,11.649-14.239c0,0,36.414,68.779,111.973,84.789
				c31.882,6.755,67.311,12.297,130.093-8.416c0,0,132.034-62.132,205.172-33.006C646.158,390.855,622.022,356.667,591.83,329.827z"
				/>
			<path fill="#F79C74" d="M506.276,232.484c0,0-20.879,7.241-21.364,22.289c0,0-12.131-18.891,10.199-29.57l0.485-6.795
				l-16.504-12.459c0,0-2.673,0.375-6.29,0.82l0,0c-44.475,8.317-51.581-6.162-51.581-6.162c8.229,2.677,14.647,3.322,19.351,3.162
				c-3.687-2.375-6.907-5.904-8.566-11.088c0,0-24.271,2.912-29.61-14.078c0,0,16.02,6.796,42.717,0c0,0,24.757-6.795,40.29,12.136
				l-2.553-9.855c0,0,23.422,18.325,44.295,15.292c0,0,9.223-16.02-21.358-38.834c0,0,3.627,6.915,6.801,20.777
				c0,0-6.53-1.441-36.407-23.301c0,0-34.708-29.425-64.075-15.533c0,0-15.049,3.398-31.067,15.533c0,0-55.823,8.738-87.377-32.522
				c0,0-14.562,45.629,10.194,66.502c0,0-13.191-29.243-4.368-48.542c0,0,17.96,24.757,37.377,27.669l-10.193,1.941
				c0,0,19.901,13.107,35.435,8.252c0,0-10.684,32.458-48.056,42.232c0,0-20.873,4.369-40.775-9.709c0,0,4.126-20.15,11.65-29.61
				c0,0-37.759,21.261-75.677,53.396l19.612-2.41c-0.53,0.788-1.06,1.591-1.586,2.411v-0.001c0,0-18.243,19.806-25.362,88.023
				l9.714-9.06c0,0,8.413,49.837,79.608,95.789c0,0-72.816-57.745,0.412-157.921c-5.984,13.296-9.686,34.464,2.727,63.506
				c0,0,6.191-6.636,11.478-9.265v-0.001c6.418,13.796,17.775,25.942,37.324,31.838c0,0,6.203-24.271,32.47-15.534
				c0,0,18.499,4.854,37.916,9.708c0,0,38.996,6.797,27.67,46.601c0,0,48.057,18.446,79.124-14.563l4.854-10.192
				c0,0-57.927-3.075-70.871,5.339c0,0,3.883-23.3-49.836-66.664c0,0,31.066-36.712,82.845-31.948c0,0,4.53,17.061,18.122,22.886
				c0,0,15.533-5.824,30.42-4.53C535.886,278.438,553.361,250.444,506.276,232.484z"/>
			<path fill="#F79C74" d="M545.837,279.813c0,0,24.757-14.563,29.611-30.339c0,0,11.407,8.98,4.611,26.698
				c0,0-5.098,10.922-18.446,15.534C561.614,291.706,554.333,280.541,545.837,279.813z"/>
			<path fill="#FFFFFF" d="M537.954,241.66c0,0,12.005,12.581,9.578,27.556c0,0,7.916-2.684,11.17-6.636
				c6.427-7.808,7.519-10.947,6.796-16.99C565.498,245.59,561.888,237.134,537.954,241.66z"/>
			<path fill="#F79C74" d="M503.363,205.787c0,0,27.447,23.865,29.854,28.396c0,0,19.636-4.471,30.812,4.439
				c0,0-12.93-23.54-34.21-34.049C529.819,204.572,522.793,201.969,503.363,205.787z"/>
			<path fill="#FFFFFF" d="M441.471,188.796c0,0,25.242-10.679,32.038,9.951C473.509,198.748,457.248,209.912,441.471,188.796z"/>
			<path fill="#FFFFFF" d="M507.489,291.706c0,0,32.75-9.269,50.97,8.252c0,0-3.641,10.921-16.262,14.805
				c0,0,4.693-4.449,6.796-14.643l-4.854,0.972l0.485-4.047l-5.566,2.913v-4.855l-6.084,3.723l-2.75-4.693l-6.149,5.339
				l-4.692-4.529c0,0-4.044,10.355-18.445,14.563C500.937,309.505,507.246,298.826,507.489,291.706z"/>
			<path fill="#FFFFFF" d="M482.814,343.323c0,0,0.646,6.795,28.478,4.691c0,0,14.886-0.889,17.476-2.143
				c0,0,2.912-7.727,2.104-11.124c0,0-6.309,7.302-7.929,9.87l-2.912-3.034l-4.369,3.034l-1.78-3.721l-4.368,3.56l-2.599-4.208
				l-8.403,5.503c0,0,4.368-6.635,3.721-12.946C502.231,332.805,490.418,341.22,482.814,343.323z"/>
			<path fill="#FFFFFF" d="M430.388,295.588c0,0,15.21,24.92,21.683,30.421l-1.295-11.247h-2.913l-0.324-6.876l-4.529-1.619
				l0.646-4.259l-5.177-1.889l0.322-4.531H430.388z"/>
			<path fill="#F79C74" d="M484.432,119.866c0,0-4.854,8.899-2.103,18.932l17.798,13.592
				C500.127,152.39,484.917,138.15,484.432,119.866z"/>
			<path fill="#F79C74" d="M539.058,326.01l2.653,14.602c0,0,47.925,12.605,68.446,29.085c0,0-18.285-29.125-54.854-47.248
				C555.303,322.449,548.056,326.657,539.058,326.01z"/>
			<path fill="#7A3518" d="M408.801,225.111c0,0,43.27-13.46,86.538,9.331l-4.916,5.031
				C490.423,239.474,452.071,217.916,408.801,225.111z"/>
			<path fill="#7A3518" d="M401.176,257.315c0,0,38.504-23.893,86.109-12.697l-3.495,6.104
				C483.791,250.723,441.253,239.485,401.176,257.315z"/>
			<path fill="#F79C74" d="M340.094,186.033c0,0-22.861,12.73-34.245-14.454C305.849,171.58,311.94,180.423,340.094,186.033z"/>
			<path fill="#7A3518" d="M324.561,231.709c0,0-14.562,23.882-4.854,49.125l8.414-8.956c0,0,0.615,20.239,16.828,34.846
				l2.266-16.181c0,0,10.031,14.562,42.069,16.181c0,0-28.534-6.348-43.097-37.508l-6.093,12.266c0,0-5.865-21.436-5.29-31.487
				l-9.596,9.481C325.208,259.475,321.325,252.162,324.561,231.709z"/>
			<path fill="#D37D5F" d="M270.517,329.827c0,0,7.767,79.352,82.31,90.612c0,0,44.547,0.778,73.674-11.261
				C426.5,409.178,311.941,415.261,270.517,329.827z"/>
			<path fill="#FFFFFF" d="M293.66,122.294c0,0,24.436,38.475,87.377,32.522l-6.884,9.858
				C374.153,164.674,320.125,167.585,293.66,122.294z"/>
			<path fill="#FFFFFF" d="M414.448,138.276c0,0,22.958-12.822,59.062,14.453c0,0,30.073,23.5,39.077,25.388
				c0,0-3.441-15.655-6.801-20.777c0,0,17.188,22.162,14.366,31.671c0,0-16.789-2.978-50.304-28.362
				C457.941,151.63,434.263,134.874,414.448,138.276z"/>
			<path fill="#FFFFFF" d="M284.923,181.03c0,0-50.744,31.163-75.677,53.396h18.026c0,0-20.94,29.731-25.362,88.023l9.714-9.06
				c0,0,7.063,41.481,47.248,71.176c0,0-49.626-54.739-36.592-106.128c6.113-24.102,21.136-60.106,54.507-80.625L284.923,181.03z"/>
			<path fill="#FFFFFF" d="M527.338,203.707c0,0,18.499,3.366,36.69,34.915c0,0-4.822-2.634-13.93-5.234
				C550.099,233.388,545.543,217.826,527.338,203.707z"/>
			<path fill="#FFFFFF" d="M571.93,256.658c0,0,9.106,24.104-10.316,35.048c0,0,26.98-8.893,19.157-34.391
				c0,0-1.852-6.045-5.764-8.681C575.007,248.634,573.581,254.772,571.93,256.658z"/>
			<path fill="#7A3518" d="M453.559,184.437c0,0-0.642,8.504,3.932,11.857c0,0,1.697-7.027,4.812-10.261L453.559,184.437z"/>
			<path fill="#FFFFFF" d="M506.276,232.484c0,0,27.258,6.883,32.378,29.296c0.94,4.115,1.649,7.956-2.768,16.658
				c0,0-4.694-0.317-8.548,0C527.338,278.438,539.469,250.588,506.276,232.484z"/>
			<path fill="#FFFFFF" d="M544.505,325.848c0,0,45.228,19.391,65.652,43.85c0,0-19.225-30.564-54.854-47.248
				C555.303,322.449,547.314,326.451,544.505,325.848z"/>
			<g>
				<path fill="#D37D5F" d="M264.321,314.763c3.28-17.282,6.501-36.33,27.324-63.506c0,0-22.296,20.923-34.948,51.025
					c-0.002-4.942,0.368-11.1,1.59-18.022c0,0-33.607,49.513,0.586,100.305l-0.045-2.501c0.965,1.737,1.985,3.475,3.102,5.212
					l29.262,21.871C289.822,408.119,252.101,379.137,264.321,314.763z"/>
				<path fill="#D37D5F" d="M291.191,409.147c0.025,0.019,0.042,0.031,0.042,0.031L291.191,409.147z"/>
			</g>
			<path fill="#D37D5F" d="M305.849,230.319c0,0-24.45,27.251-19.745,57.54c1.21,7.79,4.543,21.051,8.268,26.904
				c0,0,7.492-8.334,11.478-9.265c0,0,10.076,30.4,38.06,34.282c0,0-0.329-20.882,25.316-19.543c0,0-16.154-6.527-31.964,5.773
				c0,0-22.277-15.211-24.313-39.887c0,0-11.738,6.236-14.133,9.466C298.815,295.588,283.659,271.636,305.849,230.319z"/>
		</g>
	</g>
	<g>
		<path fill="#7A3518" d="M901.835,178.533c0,0-80.833,68.323-101.041,78.908l14.436,4.812c0,0-56.456,69.285-69.929,79.549h17.963
			l-20.528,43.625c0,0,147.726-16.736,293.031-8.076c0,0,23.244,21.548,57.246,21.548c0,0,30.151,2.566,30.151,13.472
			c0,0,20.528-4.492,25.02-48.757c0,0,8.179-22.453,0-36.888c0,0-9.143,13.954-16.359,12.51c0,0-2.886-32.718,5.774-43.785
			c0,0,15.396-7.698,20.688-17.321c0,0,18.766,0,21.651,5.773c0,0,0,10.104-3.367,14.435c0,0,15.879,2.406,30.312-13.472
			c0,0,30.793-15.878,17.322-56.294l3.41-4.812c0,0-11.417-14.652-26.988-19.727c0,0-9.141-39.455-35.124-49.559
			c0,0-13.952-37.529-64.954-47.152l5.774,7.217c0,0-57.258-22.614-97.191-16.841l7.697,7.218c0,0-29.986,2.406-33.276,5.774
			c0,0-30.235-19.728-87.493-1.444c0,0-39.454,16.359-68.322,12.991c0,0,14.915,28.87,28.868,32.719l-12.509,5.293
			C844.098,160.25,859.667,177.521,901.835,178.533z"/>
		<path fill="#FFFFFF" d="M1091.088,343.086c0,0,20.851,19.247,50.359,14.756c0,0,7.057-8.02,4.491-19.888
			c0,0-8.179,8.179-10.585,9.142c0,0-6.575,4.331-6.575,7.218l-0.482-4.17l-12.349-1.905c0,0-4.332,1.583-5.774,1.905
			c0,0,8.02-8.981,4.651-23.737C1114.825,326.406,1104.562,341.162,1091.088,343.086z"/>
		<path fill="#FFFFFF" d="M1134.872,261.451c0,0,1.124,18.925-4.17,25.18c0,0,15.88-0.161,24.54-21.491
			C1155.242,265.14,1144.173,265.943,1134.872,261.451z"/>
		<path fill="#FFFFFF" d="M1159.572,264.82v7.858c0,0,15.879-1.444,22.936,1.363l2.886-6.455c0,0,2.917,10.614,1.763,20.328
			c0,0,10.589-4.492,13.154-8.822c0,0-9.227-10.116-11.066-20.85C1189.244,258.244,1175.93,268.028,1159.572,264.82z"/>
		<path fill="#F79C74" d="M1201.111,242.526c0,0-4.812,20.85,6.576,28.227c0,0,14.913-9.463,8.499-34.643
			C1216.186,236.111,1207.687,241.403,1201.111,242.526z"/>
		<path fill="#FFFFFF" d="M1090.191,169.535c0,0,20.374-1.804,29.303,12.687l-14.106,3.355
			C1105.387,185.577,1089.201,182.178,1090.191,169.535z"/>
		<path fill="#E12226" d="M1074.344,273.079c0,0-2.888,48.767,12.51,61.276c0,0,43.769-17.682,17.548-54.851
			c0,0-0.708,9.141-8.405,15.878C1095.997,295.383,1094.072,274.833,1074.344,273.079z"/>
		<path fill="#F79C74" d="M1166.467,206.761l9.623-3.208c0,0-78.587-15.717-115.154,26.625c0,0,17.481-33.842,30.954-37.209
			c0,0-13.473-8.661-12.991-27.426c0,0-20.209-7.699-30.795-5.292c0,0,38.975-11.066,62.069-2.407l5.774-10.585
			c0,0-2.406,29.35,73.134,49.077c0,0-6.737-22.133-18.766-28.869c0,0,2.148,4.859-1.923,12.991c0,0-16.841-55.332-98.155-58.7
			c0,0-49.076-3.368-67.36,3.849l5.293,11.066c0,0-36.086-40.898-126.543-4.812c0,0-15.397,7.698-24.537,5.292
			c0,0,24.537,29.35,69.284,24.058c0,0-32.719-5.293-44.266-18.284c0,0,57.43-16.768,87.261,0.554l18.753-1.997
			c0,0-85.806,45.709-114.676,99.598l0.803-17.32c0,0-11.914,12.211-27.409,30.804l-66.895,74.19l16.302-2.013
			c-7.143,13.108-12.952,26.302-16.302,38.798l30.793-3.849c0,0,37.208-74.418,59.021-87.89c0,0-38.493,76.342-37.851,87.248
			c0,0,139.704,0.024,184.611,4.515l-1.924-9.864l-12.75-18.524l13.89,4.975c-1.282-11.377-2.469-32.412,3.993-45.632
			c0,0,0.242,17.514,5.3,32.076c7.216,17.554,25.623,50.107,64.135,54.909c0,0,34.188,1.209,37.852,12.832
			c0,0,14.753-9.624,8.979-28.87c0,0-50.04,7.699-79.55-42.341c0,0-7.698-16.038-8.34-41.699c0,0-19.246-8.34-33.36-6.416
			c0,0,42.343-53.246,112.271-29.51c0,0,55.812,14.113,69.285-7.699C1196.301,239.8,1187.958,218.629,1166.467,206.761z"/>
		<path fill="#7A3518" d="M966.085,193.379c0,0,78.555-24.539,176.886,13.472l-7.521,7.699
			C1135.45,214.55,1062.316,176.538,966.085,193.379z"/>
		<path fill="#7A3518" d="M952.614,224.172c0,0,94.305-32.237,181.875-4.811c0,0-1.926,5.773-1.204,8.661
			C1133.285,228.022,1032.484,200.596,952.614,224.172z"/>
		<path fill="#7A3518" d="M962.237,261.451c0,0,71.557-42.571,168.465-28.137c0,0,2.343,7.699,3.787,8.42
			C1134.489,241.734,1077.138,224.089,962.237,261.451z"/>
		<path fill="#7A3518" d="M941.066,194.341c0,0-49.559,23.823-57.258,82.758l9.143-4.02c0,0-0.963,37.198,15.878,53.327l3.608-12.74
			c0,0,18.043,29.832,79.148,20.689c-29.349,0-64.475-13.472-73.614-60.313l-7.7,12.589c0,0-2.886-27.75,7.218-46.581l-11.066,5.839
			C906.422,245.889,912.677,221.286,941.066,194.341z"/>
		<path fill="#F79C74" d="M1051.165,112.719c0,0,57.495,7.788,79.236,24.924h-42.028L1051.165,112.719z"/>
		<path fill="#FFFFFF" d="M1188.453,208.305c0,0,12.351,20.324,13.312,27.806c0,0,11.067-3.85,17.323-12.939
			C1219.087,223.172,1210.104,211.353,1188.453,208.305z"/>
		<path fill="#FFFFFF" d="M1170.775,172.899c0,0,14.766,14.191,18.307,23.437c0,0-6.471-23.167-18.766-28.869L1170.775,172.899z"/>
		<path fill="#FFFFFF" d="M1168.393,180.458c0,0-14.287-56.653-117.229-67.738l13.688,9.169
			C1064.852,121.888,1142.971,133.409,1168.393,180.458z"/>
		<path fill="#FFFFFF" d="M857.09,137.154c0,0,11.325-0.721,26.718-6.151c0,0,58.035-22.913,86.64-12.208
			c0,0,21.783,4.076,36.655,16.803c0,0-30.676-22.878-93.867-7.161C899.451,131.866,871.51,146.834,857.09,137.154z"/>
		<path fill="#FFFFFF" d="M1208.945,239.923c0,0,9.331,15.702-1.258,30.831c0,0,16.646-13.089,8.499-34.643
			C1216.186,236.111,1213.059,237.893,1208.945,239.923z"/>
		<path fill="#FFFFFF" d="M1185.162,222.208c0,0,10.581,14.386,11.14,17.591c0,0-7.596,13.498-34.419,12.184
			c0,0,21.324-6.094,26.57-14.843C1188.453,237.141,1190.95,233.031,1185.162,222.208z"/>
		<path fill="#FFFFFF" d="M1135.996,367.465c0,0,6.813,19.67-8.979,28.87c0,0,5.227-13.438-1.421-23.139
			c0,0-16.346-1.19-26.139-10.656C1099.457,362.54,1118.457,369.97,1135.996,367.465z"/>
		<path fill="#D37D5F" d="M947.017,189.946c-9.32,6.235-30.525,20.262-40.595,55.943l11.066-5.839c0,0-11.937,16.315-7.218,46.581
			l7.7-12.589c0,0,5.331,62.076,75.756,60.313c0,0-69.347-43.083-53.178-90.153c0,0-12.936,9.102-16.528,12.456
			c0,0,11.161-33.485,18.684-42.108l-17.247,10.609C925.458,225.159,934.8,202.881,947.017,189.946z"/>
		<path fill="#D37D5F" d="M968.582,362.959c0,0-29.99-3.904-56.418-27.612c0,0,3.775,7.865,9.947,15.611
			c-13.266-7.905-27.403-21.078-38.303-43.038c0,0-3.401,4.294-4.106,12.01c-5.05-13.536-6.868-31.332-2.392-54.711
			c0,0-31.154,44.039-45.4,95.83l91.282,0.89c0.439,0.039,0.878,0.073,1.308,0.079l9.585,0.189l0.001,0L968.582,362.959z"/>
	</g>
	<g>
		<path fill="#7A3518" d="M339.621,547.876c0,0-29.91,1.599-59.97,21.88c-8.503,5.737-18.623,14.142-26.265,32.698
			c0,0,0.729-7.641,4.367-16.373c0,0-30.435-2.486-37.113-6.914c-4.573-3.03-16.983-4.703-16.737,14.191
			c0,0-1.819,37.843,39.66,59.309c0,0-13.1-0.727-22.923-5.822c0,0,2.184,34.203,14.19,44.754c0,0-12.371-1.818-17.102-5.094
			c0,0-2.184,43.664,37.842,65.131c0,0,1.454,36.749,27.652,54.214l5.458,4.729c0,0-13.462,53.853,30.928,70.226
			c0,0,55.306,25.107,114.979-32.747l-7.642-3.639c0,0,26.198-41.479,74.228-61.127c0,0,56.035-20.375,68.405-104.062l-19.648,6.55
			c0,0,20.377-11.643,24.743-60.4l-23.288,4.366c0,0,20.106-13.722,32.021-56.034c4.568-16.225,13.279-61.855-8.006-66.949
			c-9.199-1.907-15.251,2.145-35.154,13.28c-16.301,9.119-40.71,18.557-73.456,13.644l17.465,11.462
			c0,0-22.742-11.555-79.287-13.099C389.831,531.635,353.408,538.828,339.621,547.876z"/>
		<path fill="#FFFFFF" d="M282.859,752.728c0,0-1.091,22.923,18.557,32.746c0,0-4.729-7.64,0-26.196c0,0,2.184,5.095,6.914,6.913
			c0,0,31.291-4.73,37.841-0.363c0,0,2.548-3.276,2.911-7.642c0,0,12.735,10.188,13.099,27.288c0,0,16.374-16.737,9.461-37.112
			C371.641,748.362,304.691,751.272,282.859,752.728z"/>
		<path fill="#FFFFFF" d="M313.059,798.939c0,0-7.281,22.442,5.459,29.836c0,0,36.385-3.64,46.573,0c0,0,9.46-2.184,9.824-14.918
			c0,0-0.728-12.373-10.553-19.649c0,0,1.183,18.92-4.002,24.104l-2.456-4.912c0,0-29.473,3.549-33.566,0.273
			c0,0-1.091,3.821-1.364,5.731C322.974,819.405,315.425,812.31,313.059,798.939z"/>
		<path fill="#F79C74" d="M510.222,559.059c0,0,28.064,29.751,32.976,48.854c0,0,35.477-22.924,24.016-74.229
			c0,0-21.832,0-44.209,13.871C519.091,549.983,510.222,559.059,510.222,559.059z"/>
		<path fill="#F79C74" d="M219.548,593.175c0,0,14.237,7.937,28.108,10.625c0,0-6.936,14.256-6.823,32.493
			C240.833,636.293,217.366,618.829,219.548,593.175z"/>
		<path fill="#F79C74" d="M559.026,640.114c0,0-43.663,16.92-67.677,16.92c0,0,33.49-16.193,32.335-33.152
			c-1.597-23.441-22.511-37.255-72.723-51.991c0,0,27.835,2.729,37.658,4.912c0,0-55.67-43.662-123.347-24.014
			c0,0-31.11,9.823-45.3,35.476c0,0-2.729-8.732,7.641-21.831c0,0-62.766,13.646-76.956,63.857c0,0-6.004,14.189,9.278,31.108
			c0,0,2.214-2.355,6.059-5.762c-2.604-3.933-7.259-11.184-9.317-15.796c-3.57-8,0.438-25.106,34.369-9.825
			c7.095,1.768,10.139,3.132,17.059,1.768l-0.005,0.003c1.578-0.378,3.171-0.704,4.777-0.951c0,0-26.197,17.465-39.297,40.389
			c0,0-22.923,13.098-8.187,32.2c0,0-7.822-0.909-11.279-10.006c0,0-4.366,18.921,19.648,32.384c0,0-12.007,0-16.738-3.275
			c0,0,4.368,22.924,35.295,20.74c0,0,10.552,0.729,12.734-14.19l-11.643-13.826c0,0,9.824,0.727-1.092-11.28
			c0,0-10.552-10.187-12.371-2.183l-8.368-9.461c0,0,0.009-2.291,1.324-4.365h-0.007c0,0,13.601-22.196,31.43-35.657
			c0,0-17.834,24.395-21.753,33.539c6.541,2.322,22.453,6.801,33.759,0.299l6.201-3.2l1.555-0.802l19.898-23.742l-11.307,25.699l0,0
			c0.783,0.928,1.377,1.985,1.481,3.137c0,0,6.55-0.364,13.463-8.733c4.003,3.275-2.547,17.767-16.373,22.559
			c0,0,0.728-9.906-8.369-5.317c0,0-6.72,8.295-8.615,12.787c-0.266,0.628-0.436,1.182-0.481,1.628
			c-0.363,3.639,2.184,4.729,7.277,3.639l-8.731,13.099c0,0-2.185,6.551,13.462,12.734c0,0,34.203,5.822,61.492-5.094
			c0,0,11.28-8.732,13.826-19.648c0,0-16.737,13.463-36.386,10.553c0,0,29.473-9.907,34.566-29.697c0,0-13.099,8.955-30.563,9.684
			c0,0,23.65-10.187,22.56-34.564c0,0-8.37-32.601-39.661-15.937c0,0,4.912-13.001,16.919-16.64l-10.006-15.454l14.554,5.821
			c0,0,24.379-30.199,54.579-17.828c0,0,15.646,5.094,25.835-2.91c0,0-6.914,16.737-25.472,23.65c0,0-0.74,6.721-7.276,14.37
			c0,0-5.093,5.061-14.189,8.99c0,0,26.196,22.123,28.379,51.23c0,0,4.798,65.493-29.983,101.15c0,0-2.397-7.64-10.403-13.461
			c0,0,1.454,31.653-14.556,47.3c0,0-4.365,5.459-17.828,0c0,0-22.56-11.642-59.309,0.365c0,0,5.459,26.197,39.661,26.561
			c0,0-5.458-2.909-5.822-8.004c0,0,13.463,7.641,35.294,6.186l-6.913-5.823c0,0,22.924,5.459,33.839-5.456l-8.732-4.73
			c0,0,35.111-45.847,60.218-63.857c0,0,28.381-18.011,40.934-26.198c0,0,37.659-14.189,50.212-53.486
			c0,0-17.466,9.097-36.568,10.553C504.993,717.252,547.019,687.597,559.026,640.114z"/>
		<path fill="#F79C74" d="M228.554,658.398c0,0,13.645,3.82,19.103,2.184c0,0-8.188,21.558-5.731,29.472
			c0,0-6.822-7.096-3.82-22.924C238.105,667.129,231.209,664.48,228.554,658.398z"/>
		<path fill="#F79C74" d="M226.643,696.267c0,0,9.825,7.431,18.284,7.431c0,0,0.818,24.561,9.871,39.85
			c0,0-14.077-12.015-15.329-31.936C239.469,711.612,230.737,708.757,226.643,696.267z"/>
		<path fill="#7A3518" d="M518.685,570.798c0,0,19.822-19.783,35.131-14.805c0,0,0.22,21.508-18.346,35.415L518.685,570.798z"/>
		<path fill="#FFFFFF" d="M319.973,588.264c0,0,22.165-47.648,97.038-39.597c0,0,52.433,8.669,71.608,28.135
			C488.62,576.802,390.717,524.197,319.973,588.264z"/>
		<path fill="#FFFFFF" d="M327.614,566.433c0,0-55.325,11.128-74.4,56.421c0,0,19.578-30.428,67.736-44.72
			C320.95,578.134,323.836,570.843,327.614,566.433z"/>
		<path fill="#FFFFFF" d="M293.399,685c4.111-9.52,15.92-35.744,26.574-48.706c0,0-24.689,19.987-37.402,49.549
			c0,0,1.692,1.396,5.638,2.217c17.538,5.639,29.05-2.394,29.05-2.394C309.143,688.618,299.492,686.787,293.399,685z"/>
		<path fill="#FFFFFF" d="M286.163,654.223c0,0-10.926,12.834-12.582,17.001c0,0-22.926,11.703-8.187,32.2
			c0,0-7.356-0.792-11.279-10.006c0,0-4.952,19.416,19.648,32.384c0,0-10.872,0.28-16.738-3.275c0,0,3.197,18.672,27.941,20.777
			c0,0-13.283-5.137-18.836-13.105c0,0,9.172,2.537,16.719-4.587c0,0-13.581-4.347-23.118-19.316c0,0,5.977,1.381,11.047,0.634
			c0,0-9.357-12.826-4.647-22.832c1.497-3.182,4.708-6.57,10.02-9.872C276.15,674.225,281.053,659.581,286.163,654.223z"/>
		<path fill="#FFFFFF" d="M322.883,695.742c0,0-6.653,12.487-1.583,13.693l8.935-1.547l-10.84,19.656c0,0-1.716,8.457,10.84,12.68
			l-4.44-0.596c0,0-13.182-3.303-13.546-12.281l8.815-13.552c0,0-8.271,2.396-7.277-3.639
			C313.787,710.157,315.413,703.417,322.883,695.742z"/>
		<path fill="#FFFFFF" d="M312.249,838.869c0,0,9.503,26.065,30.284,29.201c0,0-29.357,3.14-39.661-26.561L312.249,838.869z"/>
		<path fill="#FFFFFF" d="M219.405,592.453c0,0,7.662,15.294,25.146,19.848c0,0,1.896-6.81,3.105-8.5
			C247.657,603.8,232.559,598.005,219.405,592.453z"/>
		<path fill="#7A3518" d="M456.226,680.625l30.997-17.265c0,0-5.433,19.331-19.606,35.145l15.622-2.188
			c0,0-5.07,34.77-34.769,46.775c0,0,20.497-15.271,24.085-39.867l-20.101,1.853c0,0,14.438-13.28,20.485-28.604L456.226,680.625z"
			/>
		<path fill="#FFFFFF" d="M274.179,633.048c-1.623,2.629-3.085,7.377-3.085,7.377c-1.62-2.367-1.588-6.096-1.396-8.27
			c-2.318-0.363-4.432-0.503-5.941-0.229c0,0-0.556,13.611,8.46,12.826l13.099-8.46C285.315,636.293,279.87,634.383,274.179,633.048
			z"/>
		<path fill="#FFFFFF" d="M410.209,616.282c-1.963-0.063-4.041,0.485-6.136,1.421c5.228,8.91,0.188,19.327,0.188,19.327
			c-2.344-7.171-6.012-11.384-8.757-13.692c-6.527,5.476-11.675,12.137-11.675,12.137s4.271,5.439,7.823,6.641
			c28.843,9.752,29.108-18.085,29.108-18.085C418.214,616.86,410.209,616.282,410.209,616.282z"/>
		<path fill="#D37D5F" d="M491.349,657.034c0,0,36.671-5.235,67.677-16.92c0,0-5.781,43.024-54.033,77.139
			c0,0,25.762-2.905,36.568-10.553c0,0-4.553,33.612-58.985,59.16c0,0-18.146,11.12-27.18,17.359c0,0,21.007-21.705,32.505-32.014
			c5.594-5.016,14.24-13.978,19.311-23.031l-20.035-1.959c0,0,31.318-36.148,42.374-66.278
			C529.55,659.937,512.166,658.49,491.349,657.034z"/>
		<path fill="#7A3518" d="M412.207,663.361c0,0,15.573-2.545,21.729-25.076c0,0,2.173,27.918-18.108,31.848L412.207,663.361z"/>
		<path fill="#FFFFFF" d="M515.371,564.792c0,0,21.785-24.131,48.827-25.096c0,0,6.036,19.729,0,41.132
			c0,0,9.581-22.486,3.016-47.144c0,0-45.294,1.033-56.991,25.374L515.371,564.792z"/>
	</g>
	<g>
		<path fill="#7A3518" d="M1151.573,755.9c0,0-5.045-54.111-30.266-81.625c0,0,11.006-1.376,21.896-0.574
			c-13.068-22.355-29.577-37.488-42.646-49.87c0,0-10.662-7.91-4.472-24.075c0,0,13.757-23.387,11.006-49.526
			c0,0-7.361,11.558-10.548,9.86c6.879-12.381,5.045-31.184-0.458-44.253c0,0-8.255-18.572-2.751-36.456
			c0,0-18.572,22.012-28.89,25.451c0,0-21.324,8.254-36.458,25.45c0,0-14.444,13.069-28.201,8.941c0,0-25.451-13.757-45.398-6.189
			l-10.97,0.913l-10.971-0.913c-19.947-7.567-45.397,6.189-45.397,6.189c-13.758,4.128-28.203-8.941-28.203-8.941
			c-15.132-17.196-36.456-25.45-36.456-25.45c-10.318-3.439-28.89-25.451-28.89-25.451c5.502,17.884-2.752,36.456-2.752,36.456
			c-5.503,13.069-7.336,31.872-0.458,44.253c-3.186,1.697-10.548-9.86-10.548-9.86c-2.751,26.14,11.006,49.526,11.006,49.526
			c6.19,16.165-4.472,24.075-4.472,24.075c-13.068,12.382-29.577,27.515-42.646,49.87c10.892-0.802,21.897,0.574,21.897,0.574
			c-25.222,27.514-30.267,81.625-30.267,81.625c1.376-4.127,20.406-11.006,20.406-11.006c-8.942,33.936,12.382,77.729,12.382,77.729
			c6.878-19.261,25.451-27.515,25.451-27.515c19.717-8.942,22.528,23.096,22.929,35.08c0.917,27.515,11.465,38.062,11.465,38.062
			c0-4.127,9.63-14.215,9.63-14.215c1.376,14.217,15.592,31.182,15.592,31.182c0.917-10.09,26.597-32.558,26.597-32.558
			c27.515-17.885,39.896,9.63,39.896,9.63c4.868-6.638,22.545,8.074,23.773,9.109v0.062c0,0,0.02-0.018,0.036-0.031
			c0.016,0.014,0.035,0.031,0.035,0.031v-0.062c1.229-1.035,18.906-15.747,23.774-9.109c0,0,12.38-27.515,39.895-9.63
			c0,0,25.68,22.468,26.598,32.558c0,0,14.215-16.965,15.591-31.182c0,0,9.63,10.088,9.63,14.215c0,0,10.548-10.548,11.466-38.062
			c0.399-11.984,3.211-44.022,22.929-35.08c0,0,18.572,8.254,25.451,27.515c0,0,21.323-43.793,12.382-77.729
			C1131.167,744.894,1150.197,751.773,1151.573,755.9z"/>
		<path fill="#7A3518" d="M870.083,765.071"/>
		<path fill="#F79C74" d="M1129.103,727.009c-2.293-27.057-33.476-70.619-33.476-70.619c3.669,0,20.062,1.834,20.062,1.834
			c-23.731-30.267-47.146-52.762-65.92-64.201c-25.575-15.581-16.967-39.895-16.967-39.895c-1.376,8.713,7.795,14.674,7.795,14.674
			c-7.337-16.967,19.72-38.062,19.72-38.062c7.966-3.983,12.921-8.881,16.006-13.437c5.632,21.025,6.574,38.363,6.464,51.498
			c-0.173,20.196-18.343,13.757-18.343,13.757c13.526,10.089,20.177,5.732,20.177,5.732c16.967-11.923-3.21-85.065-3.21-85.065
			c-6.419,12.84-22.012,15.592-22.012,15.592c-17.885,6.878-27.057,20.178-27.057,20.178
			c-11.464,11.464-21.554,14.215-21.554,14.215c-21.367-11.822-66.598-7.868-67.372-7.799c-0.776-0.069-46.005-4.023-67.373,7.799
			c0,0-10.09-2.751-21.554-14.215c0,0-9.172-13.3-27.056-20.178c0,0-15.593-2.752-22.012-15.592c0,0-20.178,73.143-3.212,85.065
			c0,0,6.651,4.356,20.179-5.732c0,0-18.17,6.439-18.343-13.757c-0.111-13.135,0.832-30.473,6.463-51.498
			c3.085,4.556,8.04,9.453,16.007,13.437c0,0,27.057,21.095,19.72,38.062c0,0,9.171-5.961,7.795-14.674
			c0,0,8.607,24.313-16.967,39.895c-18.775,11.439-42.189,33.935-65.921,64.201c0,0,16.394-1.834,20.063-1.834
			c0,0-31.183,43.562-33.477,70.619l11.006-6.42c0,0-4.585,48.608,3.67,66.034c0,0,34.85-41.729,75.435-67.868
			c0,0-41.502,21.324-59.844,32.33c0,0-2.981-33.935,14.444-59.156l-18.57,8.483c0,0,17.424-44.94,46.772-55.946
			c0,0,18.801-8.255,27.973-3.21c0,0,14.217-12.382,32.102-0.917c0,0,19.719,14.216,26.139,11.465c0,0-1.833-17.886-14.673-19.719
			l0.916,5.961c0,0-23.845-20.178-54.57-8.713c0,0,21.093-13.757,32.559-10.547l-4.128-5.044c0,0,15.593,0.459,22.93,6.878v-5.961
			c0,0,24.761,12.84,30.724,27.056c0,0,9.63,17.426,0.917,25.681c0,0,0.573,25.448,11.851,28.977v0.027
			c0.012-0.005,0.024-0.009,0.036-0.014c0.012,0.005,0.024,0.009,0.035,0.014v-0.027c11.278-3.528,11.851-28.977,11.851-28.977
			c-8.713-8.255,0.918-25.681,0.918-25.681c5.961-14.216,30.723-27.056,30.723-27.056v5.961c7.337-6.419,22.93-6.878,22.93-6.878
			l-4.127,5.044c11.465-3.21,32.558,10.547,32.558,10.547c-30.726-11.465-54.569,8.713-54.569,8.713l0.916-5.961
			c-12.84,1.833-14.674,19.719-14.674,19.719c6.421,2.751,26.139-11.465,26.139-11.465c17.885-11.465,32.102,0.917,32.102,0.917
			c9.172-5.045,27.973,3.21,27.973,3.21c29.349,11.006,46.772,55.946,46.772,55.946l-18.57-8.483
			c17.427,25.222,14.444,59.156,14.444,59.156c-18.342-11.006-59.844-32.33-59.844-32.33c40.585,26.139,75.436,67.868,75.436,67.868
			c8.254-17.426,3.669-66.034,3.669-66.034L1129.103,727.009z"/>
		<path fill="#F79C74" d="M824.225,787.542c0,0,4.356,12.611,2.292,36.227c-0.584,6.687,0,19.262,3.669,26.598l11.924-15.133
			c0,0-1.605,19.261,11.464,33.018c0,0-9.859-16.278-5.045-49.067l-15.82,17.426C832.708,836.609,830.875,796.255,824.225,787.542z"
			/>
		<path fill="#F79C74" d="M1026.612,652.721c0,0-12.037,37.832-51.934,19.947c0,0-10.662-3.438-12.382,5.159
			c0,0,3.778,29.201-19.223,33.697c-23.003-4.496-19.225-33.697-19.225-33.697c-1.72-8.598-12.382-5.159-12.382-5.159
			c-39.895,17.885-51.933-19.947-51.933-19.947s-17.427,4.127-23.388,26.598c0,0,13.756-8.255,20.407-6.879
			c5.73,13.986,30.725,11.693,30.725,11.693c16.738-2.063,18.571,5.731,18.571,5.731c-40.814-4.126-36.228,43.106-36.228,43.106
			l11.924-5.962c15.459,22.278,60.751,6.814,61.527,6.547c0.774,0.268,46.067,15.731,61.527-6.547l11.923,5.962
			c0,0,4.586-47.232-36.227-43.106c0,0,1.832-7.795,18.57-5.731c0,0,24.994,2.293,30.726-11.693
			c6.649-1.376,20.405,6.879,20.405,6.879C1044.038,656.848,1026.612,652.721,1026.612,652.721z"/>
		<path fill="#FFFFFF" d="M837.065,594.023c0,0-39.896,40.812-46.316,54.112h14.675c0,0-30.266,39.438-38.062,64.658l10.088-3.669
			c0,0-7.335,19.26-5.043,77.499c0,0-9.173-33.934-3.67-66.034l-11.006,6.42c0,0,7.795-44.021,33.477-70.619l-20.063,1.834
			C771.144,658.224,789.833,627.041,837.065,594.023z"/>
		<path fill="#FFFFFF" d="M805.423,503.226c0,0,6.878,12.382,19.26,14.674c0,0,18.802,6.421,29.808,21.096
			c0,0,12.382,12.84,25.222,11.922l-11.924,7.338c0,0-11.462-4.128-18.801-16.051c0,0-7.338-13.757-27.056-20.636
			C821.932,521.569,806.34,515.608,805.423,503.226z"/>
		<path fill="#FFFFFF" d="M890.309,652.084c-1.609,3.851-2.802,10.267-2.802,10.267c-3.914-2.283-3.42-8.839-2.809-12.446
			l-11.637-4.521c-5.044,11.464,2.688,21.359,10.777,23.157c16.509,3.669,21.095-10.775,21.095-10.775L890.309,652.084z"/>
		<path fill="#FFFFFF" d="M943.225,744.207L943.225,744.207h-0.008c-0.002,0-0.009,0-0.009,0l0,0
			c-0.373,0.001-18.658,0.049-28.415,4.814c0,0,2.521,12.152,9.63,20.636l2.293-17.655l2.294,4.586c0,0,11.421-0.912,14.198-0.459
			v0.001c0,0,0.006-0.001,0.009-0.001c0,0,0.005,0,0.008,0.001v-0.001c2.777-0.453,14.197,0.459,14.197,0.459l2.293-4.586
			l2.294,17.655c7.108-8.483,9.63-20.636,9.63-20.636C961.881,744.255,943.597,744.208,943.225,744.207z"/>
		<path fill="#FFFFFF" d="M960.118,783.874c-0.229,6.65-4.585,17.196-4.585,17.196l-2.752-5.045h-9.556h-0.074h-9.556l-2.752,5.045
			c0,0-4.355-10.546-4.585-17.196c0,0-5.045,14.445-1.605,22.012l18.498,0.227v0.002h0.037h0.037v-0.002l18.498-0.227
			C965.163,798.319,960.118,783.874,960.118,783.874z"/>
		<path fill="#F79C74" d="M1003.913,739.85c0,0-24.765,8.255-29.809,37.146c0,0,0,12.84,0.918,16.967c0,0,0.46,22.928-14.215,24.762
			c0,0-12.323-3.192-17.39-1.386c-5.066-1.807-17.39,1.386-17.39,1.386c-14.675-1.834-14.216-24.762-14.216-24.762
			c0.918-4.127,0.918-16.967,0.918-16.967c-5.044-28.891-29.808-37.146-29.808-37.146c-37.146-2.293-70.163,41.73-70.163,41.73
			c40.354-35.311,65.576-32.101,65.576-32.101c9.63,0.917,13.988,9.859,13.988,9.859c-2.752,3.668-4.815,12.839-4.815,12.839
			c2.294-0.917,6.648,1.835,6.648,1.835c-4.814,5.503-5.73,16.509-5.73,16.509c5.045-1.375,7.908,1.146,7.908,1.146
			c-2.75,2.752-4.471,15.478-4.471,15.478c7.223-2.064,10.776,4.242,10.776,4.242c3.668,20.636,12.382,30.724,12.382,30.724
			l-0.916-9.63c8.861,18.165,27.989,20.492,29.275,20.629v0.007c0,0,0.021-0.003,0.036-0.004c0.015,0.001,0.035,0.004,0.035,0.004
			v-0.007c1.286-0.137,20.415-2.464,29.276-20.629l-0.916,9.63c0,0,8.714-10.088,12.381-30.724c0,0,3.555-6.307,10.776-4.242
			c0,0-1.72-12.726-4.471-15.478c0,0,2.863-2.521,7.908-1.146c0,0-0.916-11.006-5.73-16.509c0,0,4.355-2.752,6.648-1.835
			c0,0-2.063-9.171-4.814-12.839c0,0,4.357-8.942,13.988-9.859c0,0,25.221-3.21,65.575,32.101
			C1074.075,781.581,1041.057,737.557,1003.913,739.85z"/>
		<path fill="#7A3518" d="M1016.752,765.071"/>
		<path fill="#F79C74" d="M1062.609,787.542c0,0-4.355,12.611-2.291,36.227c0.584,6.687,0,19.262-3.67,26.598l-11.923-15.133
			c0,0,1.604,19.261-11.464,33.018c0,0,9.859-16.278,5.045-49.067l15.82,17.426C1054.126,836.609,1055.959,796.255,1062.609,787.542
			z"/>
		<path fill="#FFFFFF" d="M1049.77,594.023c0,0,39.895,40.812,46.315,54.112h-14.674c0,0,30.265,39.438,38.062,64.658l-10.089-3.669
			c0,0,7.336,19.26,5.044,77.499c0,0,9.172-33.934,3.669-66.034l11.006,6.42c0,0-7.795-44.021-33.476-70.619l20.062,1.834
			C1115.69,658.224,1097.002,627.041,1049.77,594.023z"/>
		<path fill="#D37D5F" d="M997.492,692.158c0,0,12.841,31.183-27.973,29.349l-26.066-0.914v-0.003l-0.035,0.002l-0.036-0.002v0.003
			l-26.066,0.914c-40.813,1.834-27.973-29.349-27.973-29.349c-23.846,9.173-19.72,40.813-19.72,40.813l11.924-5.962
			c16.509,22.47,61.794,6.535,61.794,6.535h0.154c0,0,45.285,15.935,61.794-6.535l11.923,5.962
			C1017.211,732.971,1021.337,701.331,997.492,692.158z"/>
		<path fill="#FFFFFF" d="M1081.412,503.226c0,0-6.879,12.382-19.261,14.674c0,0-18.802,6.421-29.808,21.096
			c0,0-12.382,12.84-25.222,11.922l11.924,7.338c0,0,11.463-4.128,18.801-16.051c0,0,7.338-13.757,27.057-20.636
			C1064.903,521.569,1080.494,515.608,1081.412,503.226z"/>
		<path fill="#FFFFFF" d="M996.525,652.084c1.609,3.851,2.802,10.267,2.802,10.267c3.914-2.283,3.42-8.839,2.809-12.446
			l11.638-4.521c5.043,11.464-2.688,21.359-10.778,23.157c-16.509,3.669-21.094-10.775-21.094-10.775L996.525,652.084z"/>
		<path fill="#D37D5F" d="M943.417,841.424c-2.841-0.041-28.962-1.61-42.609-44.94c0,0,1.604,18.572,4.127,25.45
			c0,0,7.104,17.886,10.087,20.178l-0.916-9.63c0,0,9.148,17.839,29.275,20.624v0.012c0.012-0.001,0.024-0.004,0.036-0.006
			c0.012,0.002,0.024,0.005,0.035,0.006v-0.012c20.128-2.785,29.276-20.624,29.276-20.624l-0.916,9.63
			c2.982-2.292,10.086-20.178,10.086-20.178c2.522-6.878,4.128-25.45,4.128-25.45C972.379,839.814,946.257,841.383,943.417,841.424z
			"/>
	</g>
</g>
</svg>
